<mxfile host="app.diagrams.net" modified="2021-09-03T01:23:54.301Z" agent="5.0 (Windows NT 10.0; Win64; x64) AppleWebKit/537.36 (KHTML, like Gecko) Chrome/92.0.4515.159 Safari/537.36" etag="Z1G0wD8ZZdICrW4j-7uo" version="15.0.3" type="github">
  <diagram id="ssqW_myI3cUUA-k0gMA7" name="AOP-调用代理">
    <mxGraphModel dx="1145" dy="619" grid="1" gridSize="10" guides="1" tooltips="1" connect="1" arrows="1" fold="1" page="1" pageScale="1" pageWidth="827" pageHeight="1169" math="0" shadow="0">
      <root>
        <mxCell id="bF5vYxYyOjAi4rwTEDQr-0" />
        <mxCell id="bF5vYxYyOjAi4rwTEDQr-1" parent="bF5vYxYyOjAi4rwTEDQr-0" />
        <mxCell id="bF5vYxYyOjAi4rwTEDQr-4" value="" style="edgeStyle=orthogonalEdgeStyle;rounded=0;orthogonalLoop=1;jettySize=auto;html=1;fontSize=12;startArrow=none;startFill=0;endArrow=classic;endFill=1;strokeColor=#000000;strokeWidth=2;" parent="bF5vYxYyOjAi4rwTEDQr-1" source="bF5vYxYyOjAi4rwTEDQr-2" target="bF5vYxYyOjAi4rwTEDQr-3" edge="1">
          <mxGeometry relative="1" as="geometry" />
        </mxCell>
        <mxCell id="bF5vYxYyOjAi4rwTEDQr-2" value="调用基于JDK的动态代理" style="rounded=0;whiteSpace=wrap;html=1;fontSize=12;strokeColor=#000000;strokeWidth=2;fillColor=#CCCCCC;verticalAlign=middle;" parent="bF5vYxYyOjAi4rwTEDQr-1" vertex="1">
          <mxGeometry x="30" y="60" width="140" height="50" as="geometry" />
        </mxCell>
        <mxCell id="bF5vYxYyOjAi4rwTEDQr-6" style="edgeStyle=orthogonalEdgeStyle;rounded=0;orthogonalLoop=1;jettySize=auto;html=1;exitX=1;exitY=0.5;exitDx=0;exitDy=0;entryX=0;entryY=0.5;entryDx=0;entryDy=0;fontSize=12;startArrow=none;startFill=0;endArrow=oval;endFill=0;strokeColor=#000000;strokeWidth=2;dashed=1;" parent="bF5vYxYyOjAi4rwTEDQr-1" source="bF5vYxYyOjAi4rwTEDQr-3" target="bF5vYxYyOjAi4rwTEDQr-5" edge="1">
          <mxGeometry relative="1" as="geometry" />
        </mxCell>
        <mxCell id="bF5vYxYyOjAi4rwTEDQr-7" value="当获取被代理的bean时&lt;br&gt;实际获取的动态代理对象" style="edgeLabel;html=1;align=center;verticalAlign=middle;resizable=0;points=[];fontSize=12;" parent="bF5vYxYyOjAi4rwTEDQr-6" vertex="1" connectable="0">
          <mxGeometry x="-0.1947" y="2" relative="1" as="geometry">
            <mxPoint as="offset" />
          </mxGeometry>
        </mxCell>
        <mxCell id="bF5vYxYyOjAi4rwTEDQr-9" value="" style="edgeStyle=orthogonalEdgeStyle;rounded=0;orthogonalLoop=1;jettySize=auto;html=1;fontSize=12;startArrow=none;startFill=0;endArrow=classic;endFill=1;strokeColor=#000000;strokeWidth=2;" parent="bF5vYxYyOjAi4rwTEDQr-1" source="bF5vYxYyOjAi4rwTEDQr-3" target="bF5vYxYyOjAi4rwTEDQr-8" edge="1">
          <mxGeometry relative="1" as="geometry" />
        </mxCell>
        <mxCell id="bF5vYxYyOjAi4rwTEDQr-3" value="getBean(&quot;beanName&quot;)&lt;br&gt;获得AOP代理的bean" style="rounded=0;whiteSpace=wrap;html=1;fontSize=12;strokeColor=#000000;strokeWidth=2;fillColor=#CCCCCC;verticalAlign=middle;" parent="bF5vYxYyOjAi4rwTEDQr-1" vertex="1">
          <mxGeometry x="30" y="160" width="140" height="50" as="geometry" />
        </mxCell>
        <mxCell id="bF5vYxYyOjAi4rwTEDQr-5" value="" style="shape=image;verticalLabelPosition=bottom;labelBackgroundColor=#ffffff;verticalAlign=top;aspect=fixed;imageAspect=0;image=data:image/png,iVBORw0KGgoAAAANSUhEUgAAAWUAAAAvCAYAAAA7MdsFAAAgAElEQVR4Ae19x3Mb37Le/X9c5ednV7nuvZJI5EgCBJgAZpDIGWCOYs5BzDmJSr8gYTAzAHRXdpWvV164ynn3nsv1HDa269leuLz4XH0GQwwoKov6SXpYTA0wmDmnu0+f73R/fYb8nTWeQeX4cBuMd6zh//3+99/N4fWfVca34uMVH/iOfOB3FUD+cEAmW1VA+ePsVfGvir0qPvBxPlAB5Y9cQWVQ/iuVFUNdj77JY7p9GX97r4pF85VI+eMmRAVAKvb6rX2gAsqfCMr/Vuv4ZlPC5vAz/Pf7qgoof+TY/taTsdJ/ZUEgH/jNQLlhJIvUfBaOT5g4HdM8EpMcbJ/w7Oc6vhwp3wTl2iQHz9Sn6fO5Mt18vgLK5ZO7NpVBaFFA10AGdf0c0ks8XOnye27a8K6+y75rT2bgmxfQM5RBzVfy48/RvWmcR2o2C/tXkvWu7P+x7TaP8hjbFBF/yH21IOw3A+WORRGnlyJcsVcfrWzvQR6Hezzq3vGsLZWBLfHlJ54Myv/ZXo+tPRGuvgxqB7OYPy7gWeY1trcFNPdK/XYtijh6UsDeZQH7F3n0fYWFpGtGxMHRS/xvlZpFyoGgVOhrGOSxfJVnsuyc5BAY4crAwJbiEN/IYedSknfnNI/EQ67Mhm0PBWw8LmDvcQHbByLaB0r2rUlm0DIjYHole8t4cgiu5bByIMBdnNQk52axra0dgdnROcpj/jCP1NgtQJXOYmI/h/ltEdPLWdiLY2tPZVD7nnEmMFp59hqDDzNoGRdw8SIHf39J9o+dqHR/bZpDfDPH7HnwpICjK8luG7uST7ytTdl3G1IcFq8KGJv+vODCnspi9KA4rud59D68xXZFmxOwXvyUR0Axbm+T8+b1no08Tk4FNL5jztUmM6DF5uazt35PZGBPcRjak2SnObJ9lEP3MIfaW4C/dVLA+rmI7lQGDQ95rJ1J9mZz63EBh48LSI1nUJPIYvJEanP3PI/haQ415B8JDsnNHLaLPre4xpf59m0y2tM8li7zeLgqoHOIg22Ex9Jxnvn/6qaA+nct7EkOA7uSvy5u82h+17039C0DZQKy5sEMWkcyaB3OoLGflJSMTGf6Ttfpd7rP9qEDcKNTMsBdgrIlxmH0OI/R6Q90kFvku22Q6JoMyv+txonxWQ62Xg400VY3BMwdiwjPCkiMS/0GHuVweiSgbYBD97SA42d5RIe/vEyyrCRL36Mceodf4H/cl0D5ZPKcOblvScT4QhbNQ1nEt/J4ciGipU+SpX4ki6mTPMhRWwY5NA9w6JzgsXKVx/hcFnUEQskMEusiopNZNI+Q4xdwsCewbKWuP4vYioijX/6Es0PhjUnZOMZj7+c/4acXOXTEXjGbkZyBiSwoEll5/BqbmzzzJ8+KiMNjHo03xsTSl8XGVR5r2zlsbGVRl8zAEsti7iyP2PC7F3YlKJPPNvaXLzay/T727OjjmD1p/E92eXQMcWjq4965SMigTBmis4+D4zPmUP1oFstnBcytZNmYuYeyiC7xcKdu97G7BWUO0Y085lY+IKJMZOCe5LF+lsfEvCQ7+Zx3hhb9HHrHyxequoEsZh+/RlYoINKbQU0qg6YByU+bB7MILos4ORFZMNQ6K2JihWf26F7O4dnzAvzDHJxDWUw9EtA5wqH5IY+9JwXMLpYHJjfH3zEm4OhJDp7eDGz9Wcyc5TGzmEXzcBbzZwUsrWbLAhvl85YUh/mrPB5t5bB3LqClGKgp73nb52tQbujLILWcwdpZBjtXGWw/5jB/wME3KYGwbyqDxSMOO1ccdq8yWDnNILmUAT2nbLxhMIuBDRFj6wICo9KqR9f610WMbQgsQqOV8CYo33zOkc4iscRfR500seMzUvokOzZFys7+LHrXqG0RkQmOTdbuORHHv/4JxyciBueykuMnOUSXBHbf8BKPhk+cDDIo/43ZgdToK5YOrzx5jb5pHmN7QlnkT6AsR/SWJIepy9dYXMqgfjiL5AKPwJyAa1lSHJIrknwjqwK6KJJLZNA5IyA9JelljXMIzAtIzvJIzGevdbD3cogsCGgtDrySvuDWL9+IbsonJ4f+wzwebWZRn+QQJ1uuCojP8/BMZLHxOI/eofIxpvFWjh85+eB8FoGNPPb3y0GZaJ3+3RzWLvN4/FRkoKz0F/qsjMKaJwXsnAlouhGRWVJZLF3mML8mYn6FAwFibCmHy1evsbkvIskWCx7x6ex1BNQ1wzMfdCoiZXouucijmQKQMR6pOR7dc5Ld00o6rTeL1IrkV/2zPKILtLi+aQdrMoPwTh4HZD85ev8A33UmMuiZFdA9mIGzV/KHbvKhDRHDazzcsn8mM+gpyje8JCA8LyA6IQFfai+PjY0sqK2bNq2jNovzIjkjLazl456BPZ1Fmubqhogk2S3GIbTAo3NQas8xkL32M+UY2dIcYqvSc7LNKJLdfPoal49zIDlZtpjIwDcnYJT6WCv5py2dxcxlHqNTHBr7s+jbEDGyIiA6y8MzK2DvMgePAleCqzkcPs3h6tc8A2WlrrbeLMYO8xiZeTPCVi7GNykiJYbQPLspJ+k+eFjAy1cFLGwJSC2IOH+Su7ZNy6KIszMBroQUELRO8Bgq6tlBc5fN9xwW1kSsH/FolsfzRrCh1EX+fA3KsXkCYw5jmxw8Exn4pjgsHXHYuuQYUNOZvnsnM+ieyGB8S7qfnpMbcz4UsHdewPiagMicwDiopn4OgUUB6TkeA49yOHssGVw5qW97rnNMwOnLAnzFyFLpFLJBHeTY8wJ653gGzMdP8wgNZ9AyJmDrxWtQWhwY52Dv45DeyWH5EY/IrICFswKWN27wv4kMPHMiti4L2L0+8phZIbAq6XgTlGtSHHp387j8KY/tYxGtigmiBGW6b+5xHg+nJUB7/uo11rcFhCazINB4eFTAxg7JxyO9nsPhuYiuwQw65yRn8A1K8u2f5dAzw2P/WR7pom3c4wL2yK7FlFwJyo+nL8q590QG3iURT65yaOvLwDnGY5vSwt4M+rbzWNjkEV7L4fRpDuGBDGLbOexslXOJpEvfXh6Hh1KkLI8/jVEZKJOzr+SwcyTAvyLi9MmboFyT5vDwrICdHZ7JyUD5XEBT/M3ot2Usi5Z+joEj0S2eSRGHv7zG/BqPnpEsfIs5nJwIcBQjxdHTAlbXsiwylumLZkUKT5TKTy9fY3qdR3whh5Of84iOSf4yelzA7r7AxmNsP4+fX71GevKWKPAWUG4cer/v1qcymLksYHKWg3uExwX3J+wciMw/Hz0rYGVFisIC6zmcXOQwsMgjvSri7OWfcLjDw9KbxeaTAnrHSr4pjwOdO2cFDMzzSC6JOHhRQJwiRIXuNUNZrBwXsLpDOgqIz/Fo6c1i43kBw1OSnq5JAWdPc+hKly+crdMCRuZ5xBZE7DwroH+Cg2uEx/z5axwei8yn63sz6F4RsbkrIDknYGI/j+0DgWVArXMi9k4EuFJZPDzMY3KVR99ODo8fi+jsz2DsOI+RaQlkqa/tsxyiMzyOfn4TlN0UgJ2LaLklO3A9FHD+cwHhkfJxq+3LYuWqgOXlLMtqbpPT3cshvJXHz7/kMbwgZYKHTGbJ3s4JAcdXIrrSr9A+L+L0Io8BWjTnBCQnJerUXfTXjpGPy8yuQZmi3s0LDq7iKkkrCwEuXZvZ49g5Ol/iq9xD0m/0HDmBJc6xlWV3m7/mlShVJL6PQKdrPAvvnIDTX/NID5UireZ45tbnmobf79iO+CsWMXVS2zMCNp8XMDJOaS2HqYsCpmYl2ZrHBOw8zqF/LovuiSyiqzmc0qrXWz7x7WnSv/xopHRJsbrJoPxXBgd6is9TxDFxkscvwmusb/AM7MgmBMoXZyJL0xPLORxfiGjtl3QnEA8UHaljRsT5pYiOYiRm6+cw/biA6RkOdoo09/PYOhKx+jiHISo4JDgMEGVSTJ+Cj3J4tMnDWZSzJfH8mr7oC5VeHqG0jxae0xd5jM5IKWL7gohHOwIaRnnsnossQrEM8Ni+EuHvfYW2JfE62iedans5RNdyePwij/houbOXgXIiA9ckj+3LHCKDGbgX3gRlOxXdNnO4epZDoBiN1w/yWL3IITRabnfq++ZB9MXqkzzLWOi3TwHlx09yaCU/TXEYO89jcSGLzgkBp89y8BYXPecAj53nhbsF5V8LSBcjYO9GDmcXApoSWaw9LTCajOZRTZLD+EkB+wTK/TRGOYT6y31YtlFdH4eOsSx6pnjMXxUwPc3BdQ3KEsd/cizCWfRBoqdq4x8GypSZtVPbkzwenhewvEiROIfkNtF4kk/Y+yizKWBikUfPRBa+eRGHz/NIDr5CaDOPldUsWuZE7B6Rnq/gInrvscjS/Ohmji1WTSNZrFxKPt8w9iYoU/Y5cZzH9Gw5DUH1DdeEgJ0nBaw9Ks8k6onGOM7j6Exk4/4uOZ2zIq6eiOhMv4JnPYczRcTrGJXoyJ5BDgsXBcwuSQBP9v9gXv0Wn6bnr0HZP5XB6imHRkWKFpzJYPmYg39aOgcUHC1xyisnEr1BDVnSNEEKmC4CoewcBHSDBzlW6Fo/K+BnocDSYTlSbk5xtz73QdFGkkN6W8TBZR4bZ3lccQWM3gLKHfM5/My9xvZZHmvH0rGwLV6n+0xWApExHoNrlD6WjvgkhzpF9CuD8n/QOlCvMCoB8+xlDgfP/oSdXZ79FtjM4+WvBWwc57G8WwJdWXdW5CxGk6dHPJrk1T7FIX2Ux6MVjhW0aAKeZV/jXOEULXMCDk4FNKc5LF/kkS5GTPWDWczuvsLfFgt98j5liiwTWzmcP8njIRXKirKTLOtbPCgq2tqVokzLMIGpFNV2LovY25aiWEd/FsNHBVxc5pCafDNdVIKyrS+L6Sev8fg8h9F1EVMnBfz0kng8HrTQkZwTpwVcXOQQHi1NKrLjyG4O4wvvjy6+BCifnYoM7GnBGjzJY2Uxix7KTi5L/kEybTy9Y1B+nkfPsARoXRQRXwpw9UsZEdFkbI7FMhg6LIJymsfmkxwSt9YoOMQ2ROxdFfDoNI/Tl68xM6MA5WGOjeNGEUDluUr2fH+knEFoRYqQN0/yLFMhm90EZQKtK+41Ds5Lc255P4fgUIZFoEsrWUZbra7zTDfXrIhDoq2SGSS3cyxSpoz4lxd5TG6IGN/L4UX2NVaJBiliVNO0iKNL8bp4LOsRWBZx+LSAla1SoEK/tUzwWLwssGyK0YPxDN4lpxKUu1ZyOD8V4C4W7Ci7P7kS0TlSPkayDJ9zvgZl97AEsqklCenr0hmMbWawdCxFzwTOo48yqEtR1TSD9LJ0P0XMJIAlwWH2soDlYtpF16g4SOnFs59zrOJbN5zFwa8SRykDU3P89udot8AhpR5jkqP6HpWqvzJ90fxQwOVPOcSGM6BiwMqzfBkoywtE66SI82c5tiVKNhZFHvJn+dwwlEV4jkdUcXhHJWCU75FB+a/1DvjS0mShturSWYzuCQgvizh7IqI99opFyjKnLD9PZ1l3eeeJZy6HiwsR7iKPVtvHYfwij/k5CZj8aznsnuWweSYiXJyE9n6e8bS96yL2TwW0JF6BIpiJ8wIOVn/G3z6QCn0yKIcf5XBylWPPK6vbzTMCdvYF1I3w2LrMwU9c7bqIk+c5BIY5zJyIGB6XIsmhozy2dkV0KxZupV5KUCYumThS2Zb9e3k8o1RwKsuKNCTn2qaA9hu7IJonBOzSREveHgEq+7sJypQFXF6IIGqAeMLxs/fTF7eBMtEi5C+dRT0dfTwOfymBMmWA19nTLfRF/cD7ffcN+uI2UE5ksfmsgKFJ2VelDPBgh4CMw+RlAWsbJS6bbMP8ekTA8Ys8BiYyqOuVfKkMlAc5pHcL2N3lr4uSUkGfw/JVAZPz0g4a95QgzRsFfdEwkMXec6LhOIYD/cfSQnYTlOv6Bey/KCA6Kste2iXTvZpjhV3njIjdE4pYOYwe5nDyWIBnjHZWiPAOZND+sOQ/qQ0RTzIFzMwX60zFDHJ7q3y3D1EJB0/zrFhIxWDZX6iOs/migJlFHk2KnRDvklMJyhR5H1yWfKJ9WcTxsYDG1M0xKukp9/2x52tQpsHsX83g0QWHuX0OC4cSn9y7IoErnYlXputzB9J98m9yp120QlFhaCYLzySPxGwW3cRfPs8jPZNFfC2HX3LlkTIB023PtQxxmL0qYHGVZykYFdOuLqQtOdegTJzXswIGZrMMDJ/yUqRMDjt8XGCcMm1lcVL0eFHA5jYPD1Ed0wIrAMpyf8xZBmUq9CVHJCBMrouIz/BYOM1j9SSPRzs82/Gg5JSVfdwEZaoME8e1siHJFyYe8SwHz0AGHTMCDh7nEBrmEFjJYf9YhLtYSIgSPfLra8wtSJFm47CAo18LmJ78Cf+zCMp9yXPUJTksXEkTuHs8y2xAdmhMZ1DTl8XyeY5xk9GNHPYu8hiby2JkP49DefcFLTp9PHZ+KmBsIQu5jc5RrqzIpARlpb702aWgL2Q5qQhLctBBVXGqEbyt0HezPfpOoDz/uIC5VR6tVI0f53HwIo/BqSy65gSc/UKR1bs55dtA2TWUxeqzApbWpPFIb+bxS0bilJtHpYp812CRurkFlKmG8T7f/SBQjmUwcJjHwbGA0MMsAsRdFjll0p9qCRtP81hYleTsfshjaJ2Ha4LHwdMCJhayCFCBirsRKQ9Idt4iimwxC88Ej+A8j/a+DKPFdg8E+B9mMXRQwMufyzllCly2nhQwv5SFd1bAwcsCyy4IlEMbORwci+gaycJJO4EO8jg6EhCczKJrksfIogSgtPVx+yIHSv0H9vIs0x2czWLqtIC9ixx6JzLldRDaqXKDvrAPSGM0WrZ/mMPIaYEFGT0KP6dtq12zOZxdiYhPlXyufYhDHdVH3iangr6o6eUY1007lDyTApbO8hibkRZnqrscn+YQJb+bFpCaen+Wd5s/y9euQZkuUHQcX8jg4Q6HyZ0MEovSNfrNkZa+03U6YgtS1Cw3xM6JDDrmRGyc5rFxlENsgmNcXWQ9h42TPB6uCxjdFNDTl0HzBI/xNSnNp6jm5nPUHm2Xmj/KY+MwhzTt3ljh2csmPYsiRuelvar+Zam/mU0BvWsCQkVO3D7KY/k4j8V1gUVOjpEsZg7yTLaVHeGjqqFKHZWgLKeVtArPHhXw+OVrrK3zUqQWz6Bthmdy3nzJpUx3mQIZ4jF3KMm3vC+iOy1tQ4s9yrHKMqNQ0hyGt0QMTEuA0DEl4he+cK2zc5jH4mke+3sv8b+qpUh5f/4Sbf0chndy0rjQ2LAjh0gx6vav5HB4KbIiqRwB0kLmVWxNsg/wmKGxuH4+D1lO2T4tVABakNJR+Zp8rh/nMb7Bg2oIspzKthZ3BLSnPw6UqW33tMBkIgCi75S6rp3ksbEtsJ0FvVMcHGkO6Uci/EMZtkA/3BLQ1ptB25SAiWVJXuIh/csC43VpvGiMmO+d5jG5LGD7mRQpOweymNgUpIWRxo75rlAao+J4vs93KYqLrYmIjHKg6FPZZvMUj4ni3KAdBMO7kt0XtkS2FYs4ZdmuSr9ePRLhL0b3ngVpXixsC4gsCoiNcowyknWn5xto3zmN50me+SldI/2o+LZxnGPzdeKRNFdobOX51z4rPbeyK7VNXDjz8YEsJvdyWNmVaidUGxndLfrdociCDOqDuPG+nTzW94Xr4jRdd41lWXYi+yBdkw8C4bEtAZ1Fio/ZZbPUJrsvybFtm2sKH904zaF/kkP7pICVsut5zKzzaEzSdrfb5SQMmdrg4SpG3EpbU+By/R5EikNsrajngYgOecFWyC/r8SHnMlCWH6D0jCgK+bvyTNff9pvyvh/1swzK/9XqVKSV0vaikd3yLXF3aoNEBt2LIg72eTTeGCvl7guZvniXLFTk6p4X2L5RejGENuSvH4jwD1Px53Y/eFd7n/Obd1XE/gEP540tcZ/T5qc8K+/Pp2cdwzwOnuURHvm6tqC+SY5rkKK9r5cFLC4Vo/SvPDafYse3PUO0SmBJxPZF6eWRpR0BHX0Kfb9j/d6m94dcvxWUP+TBv6v3yKD8N3X1eLQvvYkm24JeBvgaIEZRXft4FrPHeVZwu560RSf+WFBm8tPLQQMcWoez7HD1l4pvsn53faa0duFIZMWrmzrddd/K9m19HPrWBISnsugc4zF3VsDGHo+GW+oQyufu4nP3goChBR5dY1mk1nI4Km4pvYu+vnqbRFcNlXyuqQLILBCugPJHrsYyKN/82xdf06Htg1lMHeQwtVLaRaHs/5NA+SPtoOzvR/xM9MUi1SWKBUll0ehr6ktp+ihtiTwvYOuQXl74/qPkr2m/77GvHw6Ua2KvcJfHRMcq+5sSBMp32c/ntO0OPb3+K3E+/+k3K+fn6PitPWu95WWX7xEQKjJ/fYrqps1/OFD+J5Yu0N86vqvjv1TpGSj/nz/ev7M+Plf2/6gy4//+/g9Mzv9Ubfpm5fxcPb+l5yc7Vm6twdyccJXvvz3ofetj8DtDxzJ+pOPfqCwMjL6nf9lUkfX7+fdabxurhbrYDzWPfiRM+N50+d39ajV+pONf/eGPDJQv7t3H2P2qylGxwZ36wL8v+tvk/aofah79SJjwvenyw4Jy+kFlknxvzvg9yvvnP0pBQAWUf6zg7rf0xQoo/2CZwm/pTH8X+66AcgWMv7Tf3xkoa3VqtNerEG1TIdKmgqtOBZX67gdQpi8qkfLd2/pLO+P32F4FlCt+9qX9tgyUH6g00OiNoPOndqTSqOFpUmEjrcL5aDWuJqTjdLQai3EVmuwqVL0FnLU6E+r0+k/um2T+VFB+oNJCazChWq3BA7UWWr0BD1TfrsNV64zQ6vR4UIn0P8tfPtXP5ecqoPztzhF5jL63cxko64xm9A8OodPTzQDqY5WpVqsRbKnG5Vg1fp5+8/hpuhonw9Voq1fdOpGCXSn802Dbrb99qCxloKzWw2xzwmIysDYfqA2w2Oqg0Wrf6EOlr0MomYDdaoTG6kQ87IVeryu7T2WsRZ2zAY566aixmlH1mwC3Bo6uCCI9bqiqbrelbK8Hah1MtnpYLcYyXeTfP/ZcpbfCJtvAWQ+r2fjVFgY2fo6S/W21lhv218JY60BdcXzkcb/WUaWBzlwLra40/lU6C2zF+2lca62mG21qoLPaUVNrRVW1GlqLHdRvdXHcK6BcAeVr//pCAVIZKBvMVuzs7uL58+eYW1iAzVH/UROZKIrTkXIwXo//Hr0t/xAb8d/jpynpt63eatSY3xzMkCeNf/bFQLkaaksjwpEgnDYT00OldyCcSjLgvWlI5W8EyonIm6BscvmQjgXhdrnR1NKGLm8AXS2Oj7LRzX4/7bsGhlon7LWW9wKi2uSANzmIVKAVqi/gNNqGbiTjIbS43HC3eRCJBmErLnqfpsubfnBbOypzHTo8AXR1uNBE9ne1ostH35uhLepFuvb4euBqaUFjVxiJsA+15uLCqjahoaMHiWQCDUV/oH409nYke2Noa6E23XDUli+0VQYb/MkBpKNd0FWpoLO74A8H4DRLC30FlD9s/G4b08q12233Bihvb+/g5cuX+PXXX3F2doaBwSHoTZb3UhoUJc+EVdfAS5Hy04kqRBr+Aab9/xjHg/evf3s2WY1Eh+pGRKIGgfKfwx2wGi1oMltRZ9Cj+iOBpBQpq2Cs60TY64JWIymvBF7mEGodKDvQm8wwWRuvAVsJyg80epY1qDUamFxeRXSqgcrgQHc4jJZ6M6q1Rmh0pciaPac3oFqtZ1SISm9i/egMhmsgfaDWX/ev1kjRm/ScHvL9Wp0OdI3JaTRBpZaopZv9VWsN0JnM0CvuIR0t7h74vX6Eo1E015TTUtftmswgueSov0prkGTWGZnMeqMRVcV+CZQjvjZoKEJXG1HvicLXVgeVhugfI9Skp9GIakaBaaTvJJfJDLIhyVSlNSr600BFVIzewKgz6Tl5vIxM32pDDTqCIbQ6HdDpDcwWOoMJBksNmrsD6G6ph1qlluxEtBP5jMaAjlASnmYbqjUGOFo9aG5sgC+SLANlXaMHiVA7tNW3ZBxqA+ytXkRSvUhFOhko39OY4PIF0FxjZrpUQPl2YKkA7qfb5a2gTMAsg/Pq2jo6ujzvpDQo8t0fLEXJFBUfDd6H3/EXuBx7gBeTpd8IsJfiKuj15YITKP/rgSQex9L48+AI/uVACB4CJSUwayxobPfA4/WVjh4PbCaJiy4H5S6EvU3Q3AbKlNY39yAeiyAUjiAWiSHVm7qmLyhSNhiNsLcFkIiFUV+rvwHKkuzWFh/iwXY4Wv2IElipaHJrYGnuRsjbjpq6dqQSYbT3BBAKJ5BMBlBLtIhKB3N9G/yhCKKJBPztzdCqNTA2dCIeDaKtJ4hwLIVEpAeuNg8CoSgSvUl0NtgYGNg7wtcLRLWxDu10fzSKUCiABptZspnaiPZADC3OWri8MYS7Gq7T7vtaM+rbfIiS/pEYQqEQGuwmxqNbWoJM544uH4KRKOLxOFoabew3JSjfq9ahxuWHr90BfY0T8VQS/kAYIb8HFqMRmtpm+EJhhCMRhGIpeNsboNNpYWrsQjIeQY1RiyptDbqCEfR42uCNxtFYI2U1DzRmdIbjaLKZYHF2Iuhrg0FvYTKHohGEo3EEOxpgrKlHIOSH1VhaEKUF14iOcBJdTbWMdqA6SRUBdbA8Uja6vOhL+NHorIfNboNaUe8w2NwIBH1o7AwgHi6CstqEJq8fTRVQ/g0yxHK8+FGB/72gTMD86tUrnJ6doaGp+a0DQQU8KuzJXPLV+AP0t/0jNOr+HqINf4mjgXvXv9E9+wPVsJrKjUyg/O+GkggZtTAYnRDGJ3BQX1uedmtt6AzFkUz3Kg6azBJneg3KVWpY3X4GRPJEK0XKJmhrXIjGQnBYJTA3OTvR21cOyjZ3F5LJOBrtElCUR8qS7JT+xuN+WGwNCEZCqDVqIQ26hMAAAAsrSURBVEVTEbQ7a2B0dKC3L4kGK8lnQGswBm+LAyq1FjpzDVQqNapNTkTTETgMehgJsBJR2Amw9Db4e4eQ8LigUetQ4/YiEe5i9rB3RhD1ulFdpUezN4ZQV5MUiaoN0BukhUxla0ckFkCNVgVjYzd6U0GYDRSR61DTHkTE1w69lvTQwuBsRyzmhVmjhbU1hL7eGOoZXyz9lkz6YdFqoQTlal0demIxNDss0NY4kRwaQld9LfORan0duuMJuJ1FikVjQVswhm6XHSq1AY2dEXjbG+Fs9yPc6YJaa0R9VwjeVokOqra2IBLpgUmjQqMnjLZ6K8z1XQgH2qHValHTGkCw3QmNwYrOQBBOs4IzVxtQ10YLiw9Wpq80VpQZ3ARlrdUJl7sVrtZ2+KIpdLtsbJdQtakOPeEQXDVmWFy+EiirDGjwhNDRWMP0rETK5XP4RwXKr6nXe0H5xYsXmJ2bZ3ybWifxaLcJ2GxX4UJR4HsxWYWt5B/QU/v3sd/3R0ZlyIBN58PBN3llAuV/Hu5goKPWWXDYN4aLBjvUykhZpYfBaoPVVqc4bGyiklwyKPdb6tHj70adqUQXMFBOJmGnidbkQ9x3O7XB6ItEH+K9aXRR+lss6twGyjpHB2LRbhj1BjT3hNHisEJraYA/5IPFaGCgnIp6oCmm7s7uMEIdjdCodDA5muALRRGKJjA4kkQD3d/Yhai/nUW6DEQiabQ7pWhPW9eGSNADbZUK16CscyIQi6GxplS8IjvcUxnQ5IsjGeqE0WiGye5GYmgAbQ4rHqjNaI/0ottlLS2yJgfCyRiazDoGyrFgF+uHjbXiNwLlvr5eRMIRhEIRdLoJZDWsOJpIx2A3SIucprYdiVQIZkNp0lrbgoj3uFlGUG10wBdPIhEPwmaUFhHSLxTohLZaB6cnjJ4WO4tym7ojaLYb4OgMobvJCtopY3X3oKu5DiqdBe1ePxxFUFbpzYxPTieDqL/Bud8GyiVf1sDgcCMRD6DGXAO3P4ZApwsmoxn29iCSsR5Y9XrWt8bcBI+/B3VmFSqgXBrfki0r1z7HFm8FZeKU9/b2EYsnUa25kRoqQbL4ua5GjePhUqRMwHs2fB9B51+URcgyMD9KV8OkmLCkBIGyXOh7GyjfMzShf2YJm5tb18ejzSV4GywMYGRQTldrYGv1wtNkv460VYZ6BOJRWE16CZT97hLfbKhHtFcqAkqgnEY0lUaIotQioL4JygQeIYS7m6BWaWFu8iDQ2QS7uxsBFt1qJFAOd13zqTIoG61uJAeTcNmsoCJWKB0tgbJX2oHCQCScRqujhoG0xt6CSBEsr0FZW49gIoYGazlfXGWsQzjVh2Q8xuiZUCSKRHoAcS9FpRIo9yhA+UEReBtlUA5JhS0alyqzE+FEFPUmHYuUo/4O6NVa5hfytkFms1REomaogFbbhkQqDItijCk6jzFQVoOBciyBWCzAQJn6uae1wRMOoanODm8khPpikY4iZbfDBFt7EN4WG6rUJjT6wvA210FvccLn64bZoEOV1oL2YBxhbzcsRm057VUtcc43I2Xl5FGZHYhGA7DX1qMrGEOEaBeitnoHMTLUj6jHDY3OBGdnkC3WpHsFlCsArPShL/H5DVDe3d3DkydPMDwyCnONxF9+SEdarRrrKVUZAL8NlIlvHvWpQHualW1/CCgr77/t8zUoP5AKfQFPIzRFntDU0IVYxAO9Rg29zYVkOgaHRYrsiBsdHiqnLyx1zfBHYvC0OpmcZaCsNsDW3INoxAurSVq0qs1OhII++EIxtDhoq9jbQdnc5MVA3A+TTgO9ox19ykj5I0BZVUWUSALBzqKeWjNoq56lwYNkpBNGxfYvlbUJsUQEDqMBtQSQoW6YiddX62B1+xALtMOg0bBIub8vIVEuah1qWwOI+1tZhKukL5T2vwnK1Xo7ehK9LM2nAuI9Yx284Rja681QaQxo8kTQ6XLC7vIg5GkpLnxa1BKHHwki1N3C+qM+alw9jI82EEUUT8Lb3Y2Ozm5Eo1H4/H64nTWssEgUVCTUwXRQyiZ/vi1SNtbVw0QUjkoLW2sPYj0t0BYXYfk52nVT4ZTL56psm8r5y9ulDJSpop1IpdHsboXmHVTF2wYi2KLCk4lStHw+8gDJ5r8sA2qKlE9GquF2vFnt9rZHIXrdDADVOjM24gPYdd7glG+J0pXylIOyVOgzmm3o8EfY9rimGonOoAnq6AiyiU3RUHdnJ8KxCGotBmgsDoT9XdDp9VDb3IhEI2httMPc1I1UKokwpe6RMDwdLagxlbjMeyoTWgMJJBM+mNVSwc9gb2Xcrao40es6/PC21kNrrEVnMIEotdPTjVA8CKfRAIOzDYEuyQYkY4svCpfdyqI+tc0Ff087oxUIKANdzWyfssriYPpFKbILeFFns6LJG2VZgky9kI3uqcxoD0TgcdlQpTPB0e6XCp2RCPy+btSapJdRiFNOJSPo9oVAEXYoGIDdIv2mdXbA73FDfWN/NLNZJACrvLebXkSyNSMQJrtToS+K9sY6VkirdfcgHOiGSadFla4GnYEIutwSl6yxuJEe7UdHvUTZkNxqiwP+cBj1thoYrXZYaqzQaA2wOupRY7UyXv6+Sg+ry4dkKiH1R2MUDqHD5bwu3jF79oThqJVqBNS21lKProBUjPT7u1BDFMUNHzM2eRDytTG736sU+soCKeXcq3z+MgBdBspk1Ori1qxPMTBFy1Ohajwv7rSgiPjZw6oyUH76sBp9nupb3+qroi1q6hI3qtbooPnItwvLQbkDYZ+b8c1Ewag05Ts5iJus1uqg0upQrUzHVRr2XbKBhqXp7E0/lZbdS/fTIW8Tk211r9qAJm8MgY7S/m7Wh0IneltQfq6KZLruu5huk0yK+8kmVbINFHJROyST3Dfdx+QiHVVqlD2nABl2vfgctSHrouyTQDkW6ISu2Cb5xDVQMflK/cr93yfZlPexPiXbyX3IW+7ohRZlfySTrIva1IBIMopas5TBSO1rYalvgzcYRGujA7Y6J2zOJrR1d6BGuQ1RoY/cp9yuLCf1JVMu0rWSjG/z/bIx1JrR4g+g0SoBe4W++DJAJI9P5azGG6D8uUYxG1UY80uvVsv8sXw+G61GslMF+rsYn9vP254vgXI1VFRMCofZ7oC33f8lr1cb7QhEQ7Bb3l4Q/ZL93VVbBMrRQIe0F1kB6HfVn7LdGrcPoZ5mtu9YeZ0+VxtsaG7rQGt7B1pbW2A1loq4N++9q+/mxg6EAx5Y9FLwUAHlu5vLdzWG33q7XxyUSWGdTo0WpxrDXhUW4irMx1To9ajQaFO/wSN/aQOVQLmK8YT0Wq2huCPgS/elbE9X14JgOMRSdOULEMp7vpfPZpcPwZ7WNyiKu5Sf6JTmrgBCge4SBfKVF4QP0U9ttMJkMrJdIXR/BZQroPwhfvMx99wJKJMAlO7SX4VTa6SD3vj7GME+9d4yUP6Kk5pScrVWX6IavmLfn2qrtz3H6IXPoLHe1u67rxONoGdvBr77vq/jRx8qQwWUv63x+NBx+5bvuzNQ/q2UlkH59R/v4eze/cpRscGd+sBf/0H6X4iVP3JfAecvhXk/LCi/7X+pVa5///8P71scwwooV0C5AspvoQde3ruHf/GHP1aOig2+qg8kHlR/FXruS038Sjvf7iLyw0XKFWf7dp2tMjaVsan4wPt9oALKb4m4K87zfuep2Khio4oPfHkfqIByBZQraXfFByo+8A35QAWUv6HBqEQdXz7qqNi0YtPvzQcqoFwB5UqUVPGBig98Qz5QAeVvaDC+txW9Im8lCq34wJf3gf8PcnRpkJOCrRoAAAAASUVORK5CYII=;" parent="bF5vYxYyOjAi4rwTEDQr-1" vertex="1">
          <mxGeometry x="370" y="161.5" width="357" height="47" as="geometry" />
        </mxCell>
        <mxCell id="bF5vYxYyOjAi4rwTEDQr-11" value="" style="edgeStyle=orthogonalEdgeStyle;rounded=0;orthogonalLoop=1;jettySize=auto;html=1;fontSize=12;startArrow=none;startFill=0;endArrow=classic;endFill=1;strokeColor=#000000;strokeWidth=2;" parent="bF5vYxYyOjAi4rwTEDQr-1" source="bF5vYxYyOjAi4rwTEDQr-8" target="bF5vYxYyOjAi4rwTEDQr-10" edge="1">
          <mxGeometry relative="1" as="geometry" />
        </mxCell>
        <mxCell id="bF5vYxYyOjAi4rwTEDQr-12" value="调用动态代理的invoke方法" style="edgeLabel;html=1;align=center;verticalAlign=middle;resizable=0;points=[];fontSize=12;" parent="bF5vYxYyOjAi4rwTEDQr-11" vertex="1" connectable="0">
          <mxGeometry x="-0.0906" y="-1" relative="1" as="geometry">
            <mxPoint as="offset" />
          </mxGeometry>
        </mxCell>
        <mxCell id="bF5vYxYyOjAi4rwTEDQr-8" value="add();&lt;br&gt;调用方法" style="rounded=0;whiteSpace=wrap;html=1;fontSize=12;strokeColor=#000000;strokeWidth=2;fillColor=#CCCCCC;verticalAlign=middle;" parent="bF5vYxYyOjAi4rwTEDQr-1" vertex="1">
          <mxGeometry x="30" y="290" width="140" height="50" as="geometry" />
        </mxCell>
        <mxCell id="bF5vYxYyOjAi4rwTEDQr-14" value="" style="group" parent="bF5vYxYyOjAi4rwTEDQr-1" vertex="1" connectable="0">
          <mxGeometry x="370" y="230" width="360" height="630" as="geometry" />
        </mxCell>
        <mxCell id="bF5vYxYyOjAi4rwTEDQr-10" value="" style="whiteSpace=wrap;html=1;rounded=0;strokeWidth=2;fillColor=#CCCCCC;" parent="bF5vYxYyOjAi4rwTEDQr-14" vertex="1">
          <mxGeometry width="360" height="629.9999999999999" as="geometry" />
        </mxCell>
        <mxCell id="bF5vYxYyOjAi4rwTEDQr-13" value="&lt;font style=&quot;font-size: 13px&quot;&gt;&lt;b&gt;JdkDynamicAopProxy&lt;/b&gt;&lt;/font&gt;#invoke" style="text;html=1;strokeColor=none;fillColor=none;align=center;verticalAlign=middle;whiteSpace=wrap;rounded=0;fontSize=12;" parent="bF5vYxYyOjAi4rwTEDQr-14" vertex="1">
          <mxGeometry x="78.5" width="200" height="48.46153846153846" as="geometry" />
        </mxCell>
        <mxCell id="bF5vYxYyOjAi4rwTEDQr-15" value="equals方法不需要代理&lt;br&gt;hashCode方法不需要代理&lt;br&gt;DecoratingProxy不需要代理&lt;br&gt;Advised接口不需要代理" style="rhombus;whiteSpace=wrap;html=1;fontSize=12;strokeColor=#000000;strokeWidth=2;verticalAlign=middle;fillColor=#FFF2CC;" parent="bF5vYxYyOjAi4rwTEDQr-14" vertex="1">
          <mxGeometry x="58.38" y="48.47" width="243.25" height="81.54" as="geometry" />
        </mxCell>
        <mxCell id="bF5vYxYyOjAi4rwTEDQr-16" value="this.advised.exposeProxy?" style="rhombus;whiteSpace=wrap;html=1;fontSize=12;strokeColor=#000000;strokeWidth=2;verticalAlign=middle;fillColor=#FFF2CC;" parent="bF5vYxYyOjAi4rwTEDQr-14" vertex="1">
          <mxGeometry x="89.2" y="173.56" width="181.62" height="62.887499999999996" as="geometry" />
        </mxCell>
        <mxCell id="bF5vYxYyOjAi4rwTEDQr-17" value="" style="edgeStyle=orthogonalEdgeStyle;rounded=0;orthogonalLoop=1;jettySize=auto;html=1;fontSize=12;startArrow=none;startFill=0;endArrow=classic;endFill=1;strokeColor=#000000;strokeWidth=2;" parent="bF5vYxYyOjAi4rwTEDQr-14" source="bF5vYxYyOjAi4rwTEDQr-15" target="bF5vYxYyOjAi4rwTEDQr-16" edge="1">
          <mxGeometry relative="1" as="geometry" />
        </mxCell>
        <mxCell id="bF5vYxYyOjAi4rwTEDQr-18" value="符合" style="edgeLabel;html=1;align=center;verticalAlign=middle;resizable=0;points=[];fontSize=12;" parent="bF5vYxYyOjAi4rwTEDQr-17" vertex="1" connectable="0">
          <mxGeometry x="-0.2145" y="-1" relative="1" as="geometry">
            <mxPoint x="1" y="-6" as="offset" />
          </mxGeometry>
        </mxCell>
        <mxCell id="bF5vYxYyOjAi4rwTEDQr-19" value="把我们的代理对象暴露在线程变量中" style="whiteSpace=wrap;html=1;strokeWidth=2;fillColor=#FFF2CC;" parent="bF5vYxYyOjAi4rwTEDQr-14" vertex="1">
          <mxGeometry x="100.02000000000001" y="282.6914423076922" width="159.99" height="64.61538461538461" as="geometry" />
        </mxCell>
        <mxCell id="bF5vYxYyOjAi4rwTEDQr-20" value="" style="edgeStyle=orthogonalEdgeStyle;rounded=0;orthogonalLoop=1;jettySize=auto;html=1;fontSize=12;startArrow=none;startFill=0;endArrow=classic;endFill=1;strokeColor=#000000;strokeWidth=2;" parent="bF5vYxYyOjAi4rwTEDQr-14" source="bF5vYxYyOjAi4rwTEDQr-16" target="bF5vYxYyOjAi4rwTEDQr-19" edge="1">
          <mxGeometry relative="1" as="geometry" />
        </mxCell>
        <mxCell id="bF5vYxYyOjAi4rwTEDQr-21" value="true" style="edgeLabel;html=1;align=center;verticalAlign=middle;resizable=0;points=[];fontSize=12;" parent="bF5vYxYyOjAi4rwTEDQr-20" vertex="1" connectable="0">
          <mxGeometry x="-0.2741" relative="1" as="geometry">
            <mxPoint as="offset" />
          </mxGeometry>
        </mxCell>
        <mxCell id="bF5vYxYyOjAi4rwTEDQr-24" value="全部转化为拦截器，通过责任链模式调用" style="whiteSpace=wrap;html=1;strokeWidth=2;fillColor=#FFF2CC;" parent="bF5vYxYyOjAi4rwTEDQr-14" vertex="1">
          <mxGeometry x="100.02" y="393.75" width="159.99" height="52.5" as="geometry" />
        </mxCell>
        <mxCell id="bF5vYxYyOjAi4rwTEDQr-25" value="" style="edgeStyle=orthogonalEdgeStyle;rounded=0;orthogonalLoop=1;jettySize=auto;html=1;fontSize=12;startArrow=none;startFill=0;endArrow=classic;endFill=1;strokeColor=#000000;strokeWidth=2;" parent="bF5vYxYyOjAi4rwTEDQr-14" source="bF5vYxYyOjAi4rwTEDQr-19" target="bF5vYxYyOjAi4rwTEDQr-24" edge="1">
          <mxGeometry relative="1" as="geometry" />
        </mxCell>
        <mxCell id="bF5vYxYyOjAi4rwTEDQr-26" style="edgeStyle=orthogonalEdgeStyle;rounded=0;orthogonalLoop=1;jettySize=auto;html=1;exitX=0;exitY=0.5;exitDx=0;exitDy=0;entryX=0;entryY=0.5;entryDx=0;entryDy=0;fontSize=12;startArrow=none;startFill=0;endArrow=classic;endFill=1;strokeColor=#000000;strokeWidth=2;" parent="bF5vYxYyOjAi4rwTEDQr-14" source="bF5vYxYyOjAi4rwTEDQr-16" target="bF5vYxYyOjAi4rwTEDQr-24" edge="1">
          <mxGeometry relative="1" as="geometry" />
        </mxCell>
        <mxCell id="bF5vYxYyOjAi4rwTEDQr-27" value="false" style="edgeLabel;html=1;align=center;verticalAlign=middle;resizable=0;points=[];fontSize=12;" parent="bF5vYxYyOjAi4rwTEDQr-26" vertex="1" connectable="0">
          <mxGeometry x="-0.5167" y="-1" relative="1" as="geometry">
            <mxPoint as="offset" />
          </mxGeometry>
        </mxCell>
        <mxCell id="2IIuYGpbAV8Tqa_VImtP-36" value="chain.isEmpty() ?" style="rhombus;whiteSpace=wrap;html=1;strokeWidth=2;fillColor=#FFF2CC;" parent="bF5vYxYyOjAi4rwTEDQr-14" vertex="1">
          <mxGeometry x="105.02" y="480" width="149.98" height="80" as="geometry" />
        </mxCell>
        <mxCell id="2IIuYGpbAV8Tqa_VImtP-37" value="" style="edgeStyle=orthogonalEdgeStyle;rounded=0;orthogonalLoop=1;jettySize=auto;html=1;fontSize=12;fontColor=#000000;startArrow=none;startFill=0;endArrow=classic;endFill=1;strokeColor=#000000;strokeWidth=2;" parent="bF5vYxYyOjAi4rwTEDQr-14" source="bF5vYxYyOjAi4rwTEDQr-24" target="2IIuYGpbAV8Tqa_VImtP-36" edge="1">
          <mxGeometry relative="1" as="geometry" />
        </mxCell>
        <mxCell id="bF5vYxYyOjAi4rwTEDQr-23" style="edgeStyle=orthogonalEdgeStyle;rounded=0;orthogonalLoop=1;jettySize=auto;html=1;exitX=1;exitY=0.5;exitDx=0;exitDy=0;fontSize=12;startArrow=none;startFill=0;endArrow=oval;endFill=1;strokeColor=#000000;strokeWidth=2;dashed=1;entryX=0;entryY=0.5;entryDx=0;entryDy=0;" parent="bF5vYxYyOjAi4rwTEDQr-1" source="bF5vYxYyOjAi4rwTEDQr-16" target="2IIuYGpbAV8Tqa_VImtP-1" edge="1">
          <mxGeometry relative="1" as="geometry">
            <mxPoint x="789.9999999999998" y="435" as="targetPoint" />
          </mxGeometry>
        </mxCell>
        <mxCell id="2IIuYGpbAV8Tqa_VImtP-5" value="" style="edgeStyle=orthogonalEdgeStyle;rounded=0;orthogonalLoop=1;jettySize=auto;html=1;fontSize=12;fontColor=#000000;startArrow=none;startFill=0;endArrow=classic;endFill=1;strokeColor=#000000;strokeWidth=2;" parent="bF5vYxYyOjAi4rwTEDQr-1" source="bF5vYxYyOjAi4rwTEDQr-24" target="2IIuYGpbAV8Tqa_VImtP-4" edge="1">
          <mxGeometry relative="1" as="geometry" />
        </mxCell>
        <mxCell id="2IIuYGpbAV8Tqa_VImtP-3" value="" style="group" parent="bF5vYxYyOjAi4rwTEDQr-1" vertex="1" connectable="0">
          <mxGeometry x="800" y="350" width="330" height="160" as="geometry" />
        </mxCell>
        <mxCell id="2IIuYGpbAV8Tqa_VImtP-1" value="&lt;pre style=&quot;background-color: #2b2b2b ; color: #a9b7c6 ; font-family: &amp;quot;jetbrains mono&amp;quot; ; font-size: 9.8pt&quot;&gt;&lt;span style=&quot;color: #808080&quot;&gt;// @EnableAspectJAutoProxy(exposeProxy=true)&lt;br&gt;&lt;/span&gt;&lt;span style=&quot;color: #cc7832&quot;&gt;if &lt;/span&gt;(&lt;span style=&quot;color: #cc7832&quot;&gt;this&lt;/span&gt;.&lt;span style=&quot;color: #9876aa&quot;&gt;advised&lt;/span&gt;.&lt;span style=&quot;color: #9876aa&quot;&gt;exposeProxy&lt;/span&gt;) {&lt;br&gt;   &lt;span style=&quot;color: #808080&quot;&gt;// Make invocation available if necessary.&lt;br&gt;&lt;/span&gt;&lt;span style=&quot;color: #808080&quot;&gt;   &lt;/span&gt;&lt;span style=&quot;color: #629755 ; font-style: italic&quot;&gt;/** &lt;/span&gt;&lt;span style=&quot;color: #629755 ; font-style: italic ; font-family: &amp;quot;courier new&amp;quot;&quot;&gt;把我们的代理对象暴露到线程变量中 &lt;/span&gt;&lt;span style=&quot;color: #629755 ; font-style: italic&quot;&gt;*/&lt;br&gt;&lt;/span&gt;&lt;span style=&quot;color: #629755 ; font-style: italic&quot;&gt;   &lt;/span&gt;oldProxy = AopContext.&lt;span style=&quot;font-style: italic&quot;&gt;setCurrentProxy&lt;/span&gt;(proxy)&lt;span style=&quot;color: #cc7832&quot;&gt;;&lt;br&gt;&lt;/span&gt;&lt;span style=&quot;color: #cc7832&quot;&gt;   &lt;/span&gt;setProxyContext = &lt;span style=&quot;color: #cc7832&quot;&gt;true;&lt;br&gt;&lt;/span&gt;}&lt;br&gt;&lt;br&gt;&lt;/pre&gt;" style="text;whiteSpace=wrap;html=1;fontSize=12;" parent="2IIuYGpbAV8Tqa_VImtP-3" vertex="1">
          <mxGeometry y="10" width="330" height="150" as="geometry" />
        </mxCell>
        <mxCell id="2IIuYGpbAV8Tqa_VImtP-2" value="将代理对象设置到ThreadLocal中" style="shape=note;strokeWidth=2;fontSize=12;size=20;whiteSpace=wrap;html=1;rounded=0;verticalAlign=middle;fillColor=#A9C4EB;strokeColor=#A9C4EB;" parent="2IIuYGpbAV8Tqa_VImtP-3" vertex="1">
          <mxGeometry width="310" height="30" as="geometry" />
        </mxCell>
        <mxCell id="2IIuYGpbAV8Tqa_VImtP-7" style="edgeStyle=orthogonalEdgeStyle;rounded=0;orthogonalLoop=1;jettySize=auto;html=1;exitX=0.5;exitY=1;exitDx=0;exitDy=0;fontSize=12;fontColor=#000000;startArrow=none;startFill=0;endArrow=oval;endFill=1;strokeColor=#000000;strokeWidth=2;dashed=1;entryX=0.262;entryY=0.01;entryDx=0;entryDy=0;entryPerimeter=0;" parent="bF5vYxYyOjAi4rwTEDQr-1" source="2IIuYGpbAV8Tqa_VImtP-4" target="2IIuYGpbAV8Tqa_VImtP-135" edge="1">
          <mxGeometry relative="1" as="geometry">
            <mxPoint x="1270" y="960" as="targetPoint" />
          </mxGeometry>
        </mxCell>
        <mxCell id="2IIuYGpbAV8Tqa_VImtP-8" value="转换效果" style="edgeLabel;html=1;align=center;verticalAlign=middle;resizable=0;points=[];fontSize=12;fontColor=#000000;" parent="2IIuYGpbAV8Tqa_VImtP-7" vertex="1" connectable="0">
          <mxGeometry x="-0.2506" y="-2" relative="1" as="geometry">
            <mxPoint x="-202" y="-62" as="offset" />
          </mxGeometry>
        </mxCell>
        <mxCell id="2IIuYGpbAV8Tqa_VImtP-11" value="" style="edgeStyle=orthogonalEdgeStyle;rounded=0;orthogonalLoop=1;jettySize=auto;html=1;fontSize=12;fontColor=#000000;startArrow=none;startFill=0;endArrow=classic;endFill=1;strokeColor=#000000;strokeWidth=2;" parent="bF5vYxYyOjAi4rwTEDQr-1" source="2IIuYGpbAV8Tqa_VImtP-4" target="2IIuYGpbAV8Tqa_VImtP-10" edge="1">
          <mxGeometry relative="1" as="geometry" />
        </mxCell>
        <mxCell id="2IIuYGpbAV8Tqa_VImtP-4" value="getInterceptorsAndDynamicIniterceptionAdvice" style="whiteSpace=wrap;html=1;strokeWidth=2;fillColor=#FFF2CC;" parent="bF5vYxYyOjAi4rwTEDQr-1" vertex="1">
          <mxGeometry x="770" y="630" width="260.01" height="40" as="geometry" />
        </mxCell>
        <mxCell id="2IIuYGpbAV8Tqa_VImtP-12" style="edgeStyle=orthogonalEdgeStyle;rounded=0;orthogonalLoop=1;jettySize=auto;html=1;exitX=0.5;exitY=0;exitDx=0;exitDy=0;entryX=0.5;entryY=0;entryDx=0;entryDy=0;fontSize=12;fontColor=#000000;startArrow=none;startFill=0;endArrow=classic;endFill=1;strokeColor=#000000;strokeWidth=2;" parent="bF5vYxYyOjAi4rwTEDQr-1" source="2IIuYGpbAV8Tqa_VImtP-10" target="2IIuYGpbAV8Tqa_VImtP-4" edge="1">
          <mxGeometry relative="1" as="geometry" />
        </mxCell>
        <mxCell id="2IIuYGpbAV8Tqa_VImtP-13" value="缓存中有，直接返回" style="edgeLabel;html=1;align=center;verticalAlign=middle;resizable=0;points=[];fontSize=12;fontColor=#000000;" parent="2IIuYGpbAV8Tqa_VImtP-12" vertex="1" connectable="0">
          <mxGeometry x="-0.102" y="-1" relative="1" as="geometry">
            <mxPoint as="offset" />
          </mxGeometry>
        </mxCell>
        <mxCell id="2IIuYGpbAV8Tqa_VImtP-15" value="" style="edgeStyle=orthogonalEdgeStyle;rounded=0;orthogonalLoop=1;jettySize=auto;html=1;fontSize=12;fontColor=#000000;startArrow=none;startFill=0;endArrow=classic;endFill=1;strokeColor=#000000;strokeWidth=2;entryX=0;entryY=0.5;entryDx=0;entryDy=0;" parent="bF5vYxYyOjAi4rwTEDQr-1" source="2IIuYGpbAV8Tqa_VImtP-10" target="2IIuYGpbAV8Tqa_VImtP-16" edge="1">
          <mxGeometry relative="1" as="geometry">
            <mxPoint x="1760" y="650" as="targetPoint" />
          </mxGeometry>
        </mxCell>
        <mxCell id="2IIuYGpbAV8Tqa_VImtP-17" value="没有就进行转换" style="edgeLabel;html=1;align=center;verticalAlign=middle;resizable=0;points=[];fontSize=12;fontColor=#000000;" parent="2IIuYGpbAV8Tqa_VImtP-15" vertex="1" connectable="0">
          <mxGeometry x="-0.1827" y="2" relative="1" as="geometry">
            <mxPoint as="offset" />
          </mxGeometry>
        </mxCell>
        <mxCell id="2IIuYGpbAV8Tqa_VImtP-10" value="&lt;pre style=&quot;background-color: #2b2b2b ; color: #a9b7c6 ; font-family: &amp;quot;jetbrains mono&amp;quot; ; font-size: 9.8pt&quot;&gt;MethodCacheKey cacheKey = &lt;span style=&quot;color: #cc7832&quot;&gt;new &lt;/span&gt;MethodCacheKey(method)&lt;span style=&quot;color: #cc7832&quot;&gt;;&lt;br&gt;&lt;/span&gt;List&amp;lt;Object&amp;gt; cached = &lt;span style=&quot;color: #cc7832&quot;&gt;this&lt;/span&gt;.&lt;span style=&quot;color: #9876aa&quot;&gt;methodCache&lt;/span&gt;.get(cacheKey)&lt;span style=&quot;color: #cc7832&quot;&gt;;&lt;br&gt;&lt;/span&gt;&lt;/pre&gt;" style="text;whiteSpace=wrap;html=1;fontSize=12;fontColor=#000000;" parent="bF5vYxYyOjAi4rwTEDQr-1" vertex="1">
          <mxGeometry x="1110" y="615" width="420" height="70" as="geometry" />
        </mxCell>
        <mxCell id="2IIuYGpbAV8Tqa_VImtP-19" value="" style="edgeStyle=orthogonalEdgeStyle;rounded=0;orthogonalLoop=1;jettySize=auto;html=1;fontSize=12;fontColor=#000000;startArrow=none;startFill=0;endArrow=classic;endFill=1;strokeColor=#000000;strokeWidth=2;entryX=0.5;entryY=1;entryDx=0;entryDy=0;" parent="bF5vYxYyOjAi4rwTEDQr-1" source="2IIuYGpbAV8Tqa_VImtP-16" target="2IIuYGpbAV8Tqa_VImtP-28" edge="1">
          <mxGeometry relative="1" as="geometry">
            <mxPoint x="1840.0049999999997" y="519" as="targetPoint" />
          </mxGeometry>
        </mxCell>
        <mxCell id="2IIuYGpbAV8Tqa_VImtP-22" value="1、适配的advisor" style="edgeLabel;html=1;align=center;verticalAlign=middle;resizable=0;points=[];fontSize=12;fontColor=#000000;" parent="2IIuYGpbAV8Tqa_VImtP-19" vertex="1" connectable="0">
          <mxGeometry x="0.2865" y="1" relative="1" as="geometry">
            <mxPoint as="offset" />
          </mxGeometry>
        </mxCell>
        <mxCell id="2IIuYGpbAV8Tqa_VImtP-30" value="" style="edgeStyle=orthogonalEdgeStyle;rounded=0;orthogonalLoop=1;jettySize=auto;html=1;fontSize=12;fontColor=#000000;startArrow=none;startFill=0;endArrow=classic;endFill=1;strokeColor=#000000;strokeWidth=2;entryX=0.5;entryY=0;entryDx=0;entryDy=0;entryPerimeter=0;" parent="bF5vYxYyOjAi4rwTEDQr-1" source="2IIuYGpbAV8Tqa_VImtP-16" target="2IIuYGpbAV8Tqa_VImtP-33" edge="1">
          <mxGeometry relative="1" as="geometry">
            <mxPoint x="1840" y="830" as="targetPoint" />
          </mxGeometry>
        </mxCell>
        <mxCell id="2IIuYGpbAV8Tqa_VImtP-31" value="2、advisor本身实现了Interceptor&lt;br&gt;比如AspectJAfterThrowingAdvice" style="edgeLabel;html=1;align=center;verticalAlign=middle;resizable=0;points=[];fontSize=12;fontColor=#000000;" parent="2IIuYGpbAV8Tqa_VImtP-30" vertex="1" connectable="0">
          <mxGeometry x="-0.2738" y="-1" relative="1" as="geometry">
            <mxPoint as="offset" />
          </mxGeometry>
        </mxCell>
        <mxCell id="2IIuYGpbAV8Tqa_VImtP-16" value="通知大致有两种转换方式：&lt;br&gt;&lt;ol&gt;&lt;li&gt;通过适配器&lt;/li&gt;&lt;li&gt;advisor本身实现了Interceptor&lt;/li&gt;&lt;/ol&gt;" style="whiteSpace=wrap;html=1;strokeWidth=2;fillColor=#FFF2CC;align=left;" parent="bF5vYxYyOjAi4rwTEDQr-1" vertex="1">
          <mxGeometry x="1710" y="600" width="260.01" height="100" as="geometry" />
        </mxCell>
        <mxCell id="2IIuYGpbAV8Tqa_VImtP-24" value="" style="edgeStyle=orthogonalEdgeStyle;rounded=0;orthogonalLoop=1;jettySize=auto;html=1;fontSize=12;fontColor=#000000;startArrow=none;startFill=0;endArrow=classic;endFill=1;strokeColor=#000000;strokeWidth=2;exitX=1;exitY=0.5;exitDx=0;exitDy=0;" parent="bF5vYxYyOjAi4rwTEDQr-1" source="2IIuYGpbAV8Tqa_VImtP-28" target="2IIuYGpbAV8Tqa_VImtP-23" edge="1">
          <mxGeometry relative="1" as="geometry">
            <mxPoint x="2028.5100000000002" y="444.5" as="sourcePoint" />
          </mxGeometry>
        </mxCell>
        <mxCell id="2IIuYGpbAV8Tqa_VImtP-25" value="实现" style="edgeLabel;html=1;align=center;verticalAlign=middle;resizable=0;points=[];fontSize=12;fontColor=#000000;" parent="2IIuYGpbAV8Tqa_VImtP-24" vertex="1" connectable="0">
          <mxGeometry x="-0.2579" y="2" relative="1" as="geometry">
            <mxPoint as="offset" />
          </mxGeometry>
        </mxCell>
        <mxCell id="2IIuYGpbAV8Tqa_VImtP-23" value="&lt;pre style=&quot;background-color: #2b2b2b ; color: #a9b7c6 ; font-family: &amp;quot;jetbrains mono&amp;quot; ; font-size: 9.8pt&quot;&gt;&lt;span style=&quot;color: #cc7832&quot;&gt;for &lt;/span&gt;(AdvisorAdapter adapter : &lt;span style=&quot;color: #cc7832&quot;&gt;this&lt;/span&gt;.&lt;span style=&quot;color: #9876aa&quot;&gt;adapters&lt;/span&gt;) {&lt;br&gt;   &lt;span style=&quot;color: #cc7832&quot;&gt;if &lt;/span&gt;(adapter.supportsAdvice(advice)) {&lt;br&gt;      interceptors.add(adapter.getInterceptor(advisor))&lt;span style=&quot;color: #cc7832&quot;&gt;;&lt;br&gt;&lt;/span&gt;&lt;span style=&quot;color: #cc7832&quot;&gt;   &lt;/span&gt;}&lt;br&gt;}&lt;br&gt;&lt;/pre&gt;" style="text;whiteSpace=wrap;html=1;fontSize=12;fontColor=#000000;" parent="bF5vYxYyOjAi4rwTEDQr-1" vertex="1">
          <mxGeometry x="2160" y="389.5" width="360" height="110" as="geometry" />
        </mxCell>
        <mxCell id="2IIuYGpbAV8Tqa_VImtP-26" value="&lt;b&gt;&lt;font color=&quot;#006600&quot;&gt;DefaultAdvisorAdapterRegistry&lt;/font&gt;&lt;/b&gt;#getInterceptors" style="shape=note;strokeWidth=2;fontSize=14;size=20;whiteSpace=wrap;html=1;fillColor=#fff2cc;strokeColor=#d6b656;fontColor=#666600;rounded=0;verticalAlign=middle;" parent="bF5vYxYyOjAi4rwTEDQr-1" vertex="1">
          <mxGeometry x="2160" y="370" width="330" height="40" as="geometry" />
        </mxCell>
        <mxCell id="2IIuYGpbAV8Tqa_VImtP-28" value="2 = {MethodBeforeAdviceInterceptor@5744} &#xa;4 = {AfterReturningAdviceInterceptor@5746}" style="text;whiteSpace=wrap;html=1;fontSize=12;fontColor=#000000;" parent="bF5vYxYyOjAi4rwTEDQr-1" vertex="1">
          <mxGeometry x="1710" y="459.5" width="260" height="40" as="geometry" />
        </mxCell>
        <mxCell id="2IIuYGpbAV8Tqa_VImtP-34" value="" style="group" parent="bF5vYxYyOjAi4rwTEDQr-1" vertex="1" connectable="0">
          <mxGeometry x="1690" y="839.5" width="300" height="99.5" as="geometry" />
        </mxCell>
        <mxCell id="2IIuYGpbAV8Tqa_VImtP-32" value="&lt;pre style=&quot;background-color: #2b2b2b ; color: #a9b7c6 ; font-family: &amp;quot;jetbrains mono&amp;quot; ; font-size: 9.8pt&quot;&gt;&lt;span style=&quot;color: #cc7832&quot;&gt;if &lt;/span&gt;(advice &lt;span style=&quot;color: #cc7832&quot;&gt;instanceof &lt;/span&gt;MethodInterceptor) {&lt;br&gt;   interceptors.add((MethodInterceptor) advice)&lt;span style=&quot;color: #cc7832&quot;&gt;;&lt;br&gt;&lt;/span&gt;}&lt;br&gt;&lt;/pre&gt;" style="text;whiteSpace=wrap;html=1;fontSize=12;fontColor=#000000;" parent="2IIuYGpbAV8Tqa_VImtP-34" vertex="1">
          <mxGeometry y="19.5" width="300" height="80" as="geometry" />
        </mxCell>
        <mxCell id="2IIuYGpbAV8Tqa_VImtP-33" value="&lt;b&gt;&lt;font color=&quot;#006600&quot;&gt;DefaultAdvisorAdapterRegistry&lt;/font&gt;&lt;/b&gt;#&lt;br&gt;getInterceptors" style="shape=note;strokeWidth=2;fontSize=14;size=20;whiteSpace=wrap;html=1;fillColor=#fff2cc;strokeColor=#d6b656;fontColor=#666600;rounded=0;verticalAlign=middle;" parent="2IIuYGpbAV8Tqa_VImtP-34" vertex="1">
          <mxGeometry width="300" height="40" as="geometry" />
        </mxCell>
        <mxCell id="2IIuYGpbAV8Tqa_VImtP-35" value="" style="group" parent="bF5vYxYyOjAi4rwTEDQr-1" vertex="1" connectable="0">
          <mxGeometry x="920" y="740" width="530" height="230" as="geometry" />
        </mxCell>
        <mxCell id="2IIuYGpbAV8Tqa_VImtP-9" value="1、3会通过MethodInterceptor直接转化&lt;br&gt;2、4会通过适配器转换" style="shape=note;strokeWidth=2;fontSize=14;size=20;whiteSpace=wrap;html=1;fillColor=#fff2cc;strokeColor=#d6b656;fontColor=#666600;rounded=0;verticalAlign=middle;" parent="2IIuYGpbAV8Tqa_VImtP-35" vertex="1">
          <mxGeometry y="159" width="415" height="71" as="geometry" />
        </mxCell>
        <mxCell id="2IIuYGpbAV8Tqa_VImtP-38" value="直接调用" style="whiteSpace=wrap;html=1;strokeWidth=2;fillColor=#FFF2CC;" parent="bF5vYxYyOjAi4rwTEDQr-1" vertex="1">
          <mxGeometry x="219.99999999999997" y="720" width="120" height="60" as="geometry" />
        </mxCell>
        <mxCell id="2IIuYGpbAV8Tqa_VImtP-39" value="" style="edgeStyle=orthogonalEdgeStyle;rounded=0;orthogonalLoop=1;jettySize=auto;html=1;fontSize=12;fontColor=#000000;startArrow=none;startFill=0;endArrow=classic;endFill=1;strokeColor=#000000;strokeWidth=2;" parent="bF5vYxYyOjAi4rwTEDQr-1" source="2IIuYGpbAV8Tqa_VImtP-36" target="2IIuYGpbAV8Tqa_VImtP-38" edge="1">
          <mxGeometry relative="1" as="geometry" />
        </mxCell>
        <mxCell id="2IIuYGpbAV8Tqa_VImtP-40" value="空&lt;br&gt;转换不了" style="edgeLabel;html=1;align=center;verticalAlign=middle;resizable=0;points=[];fontSize=12;fontColor=#000000;" parent="2IIuYGpbAV8Tqa_VImtP-39" vertex="1" connectable="0">
          <mxGeometry x="-0.2161" relative="1" as="geometry">
            <mxPoint as="offset" />
          </mxGeometry>
        </mxCell>
        <mxCell id="2IIuYGpbAV8Tqa_VImtP-42" value="" style="edgeStyle=orthogonalEdgeStyle;rounded=0;orthogonalLoop=1;jettySize=auto;html=1;fontSize=12;fontColor=#000000;startArrow=none;startFill=0;endArrow=classic;endFill=1;strokeColor=#000000;strokeWidth=2;" parent="bF5vYxYyOjAi4rwTEDQr-1" source="2IIuYGpbAV8Tqa_VImtP-36" target="2IIuYGpbAV8Tqa_VImtP-41" edge="1">
          <mxGeometry relative="1" as="geometry" />
        </mxCell>
        <mxCell id="2IIuYGpbAV8Tqa_VImtP-47" value="" style="group" parent="bF5vYxYyOjAi4rwTEDQr-1" vertex="1" connectable="0">
          <mxGeometry x="220" y="890" width="590" height="230" as="geometry" />
        </mxCell>
        <mxCell id="2IIuYGpbAV8Tqa_VImtP-45" value="&lt;pre style=&quot;background-color: #2b2b2b ; color: #a9b7c6 ; font-family: &amp;quot;jetbrains mono&amp;quot; ; font-size: 9.8pt&quot;&gt;&lt;span style=&quot;color: #cc7832&quot;&gt;new &lt;/span&gt;CglibMethodInvocation(proxy&lt;span style=&quot;color: #cc7832&quot;&gt;, &lt;/span&gt;target&lt;span style=&quot;color: #cc7832&quot;&gt;, &lt;/span&gt;method&lt;span style=&quot;color: #cc7832&quot;&gt;, &lt;/span&gt;args&lt;span style=&quot;color: #cc7832&quot;&gt;, &lt;/span&gt;targetClass&lt;span style=&quot;color: #cc7832&quot;&gt;, &lt;/span&gt;chain&lt;span style=&quot;color: #cc7832&quot;&gt;, &lt;/span&gt;methodProxy)&lt;/pre&gt;" style="text;whiteSpace=wrap;html=1;fontSize=12;fontColor=#000000;" parent="2IIuYGpbAV8Tqa_VImtP-47" vertex="1">
          <mxGeometry width="590" height="60" as="geometry" />
        </mxCell>
        <mxCell id="2IIuYGpbAV8Tqa_VImtP-46" value="&lt;pre style=&quot;background-color: #2b2b2b ; color: #a9b7c6 ; font-family: &amp;quot;jetbrains mono&amp;quot; ; font-size: 9.8pt&quot;&gt;&lt;span style=&quot;color: #cc7832&quot;&gt;protected &lt;/span&gt;&lt;span style=&quot;color: #ffc66d&quot;&gt;ReflectiveMethodInvocation&lt;/span&gt;(&lt;br&gt;      Object proxy&lt;span style=&quot;color: #cc7832&quot;&gt;, &lt;/span&gt;&lt;span style=&quot;color: #bbb529&quot;&gt;@Nullable &lt;/span&gt;Object target&lt;span style=&quot;color: #cc7832&quot;&gt;, &lt;/span&gt;Method method&lt;span style=&quot;color: #cc7832&quot;&gt;, &lt;/span&gt;&lt;span style=&quot;color: #bbb529&quot;&gt;@Nullable &lt;/span&gt;Object[] arguments&lt;span style=&quot;color: #cc7832&quot;&gt;,&lt;br&gt;&lt;/span&gt;&lt;span style=&quot;color: #cc7832&quot;&gt;      &lt;/span&gt;&lt;span style=&quot;color: #bbb529&quot;&gt;@Nullable &lt;/span&gt;Class&amp;lt;?&amp;gt; targetClass&lt;span style=&quot;color: #cc7832&quot;&gt;, &lt;/span&gt;List&amp;lt;Object&amp;gt; interceptorsAndDynamicMethodMatchers) {&lt;br&gt;&lt;br&gt;   &lt;span style=&quot;color: #cc7832&quot;&gt;this&lt;/span&gt;.&lt;span style=&quot;color: #9876aa&quot;&gt;proxy &lt;/span&gt;= proxy&lt;span style=&quot;color: #cc7832&quot;&gt;;&lt;br&gt;&lt;/span&gt;&lt;span style=&quot;color: #cc7832&quot;&gt;   this&lt;/span&gt;.&lt;span style=&quot;color: #9876aa&quot;&gt;target &lt;/span&gt;= target&lt;span style=&quot;color: #cc7832&quot;&gt;;&lt;br&gt;&lt;/span&gt;&lt;span style=&quot;color: #cc7832&quot;&gt;   this&lt;/span&gt;.&lt;span style=&quot;color: #9876aa&quot;&gt;targetClass &lt;/span&gt;= targetClass&lt;span style=&quot;color: #cc7832&quot;&gt;;&lt;br&gt;&lt;/span&gt;&lt;span style=&quot;color: #cc7832&quot;&gt;   this&lt;/span&gt;.&lt;span style=&quot;color: #9876aa&quot;&gt;method &lt;/span&gt;= BridgeMethodResolver.&lt;span style=&quot;font-style: italic&quot;&gt;findBridgedMethod&lt;/span&gt;(method)&lt;span style=&quot;color: #cc7832&quot;&gt;;&lt;br&gt;&lt;/span&gt;&lt;span style=&quot;color: #cc7832&quot;&gt;   this&lt;/span&gt;.&lt;span style=&quot;color: #9876aa&quot;&gt;arguments &lt;/span&gt;= AopProxyUtils.&lt;span style=&quot;font-style: italic&quot;&gt;adaptArgumentsIfNecessary&lt;/span&gt;(method&lt;span style=&quot;color: #cc7832&quot;&gt;, &lt;/span&gt;arguments)&lt;span style=&quot;color: #cc7832&quot;&gt;;&lt;br&gt;&lt;/span&gt;&lt;span style=&quot;color: #cc7832&quot;&gt;   this&lt;/span&gt;.&lt;span style=&quot;color: #9876aa&quot;&gt;interceptorsAndDynamicMethodMatchers &lt;/span&gt;= interceptorsAndDynamicMethodMatchers&lt;span style=&quot;color: #cc7832&quot;&gt;;&lt;br&gt;&lt;/span&gt;}&lt;br&gt;&lt;br&gt;&lt;/pre&gt;" style="text;whiteSpace=wrap;html=1;fontSize=12;fontColor=#000000;" parent="2IIuYGpbAV8Tqa_VImtP-47" vertex="1">
          <mxGeometry y="20" width="590" height="210" as="geometry" />
        </mxCell>
        <mxCell id="2IIuYGpbAV8Tqa_VImtP-52" value="&lt;pre style=&quot;background-color: #2b2b2b ; color: #a9b7c6 ; font-family: &amp;quot;jetbrains mono&amp;quot; ; font-size: 9.8pt&quot;&gt;&lt;span style=&quot;color: #629755 ; font-style: italic&quot;&gt;/** &lt;/span&gt;&lt;span style=&quot;color: #629755 ; font-style: italic ; font-family: &amp;quot;courier new&amp;quot;&quot;&gt;从&lt;/span&gt;&lt;span style=&quot;color: #629755 ; font-style: italic&quot;&gt;-1&lt;/span&gt;&lt;span style=&quot;color: #629755 ; font-style: italic ; font-family: &amp;quot;courier new&amp;quot;&quot;&gt;开始，结束条件执行目标方法是下标&lt;/span&gt;&lt;span style=&quot;color: #629755 ; font-style: italic&quot;&gt;=&lt;/span&gt;&lt;span style=&quot;color: #629755 ; font-style: italic ; font-family: &amp;quot;courier new&amp;quot;&quot;&gt;拦截器的长度 &lt;/span&gt;&lt;span style=&quot;color: #629755 ; font-style: italic&quot;&gt;- 1&lt;/span&gt;&lt;span style=&quot;color: #629755 ; font-style: italic ; font-family: &amp;quot;courier new&amp;quot;&quot;&gt;（执行了最后一个拦截器的时候） &lt;/span&gt;&lt;span style=&quot;color: #629755 ; font-style: italic&quot;&gt;*/&lt;br&gt;&lt;/span&gt;&lt;span style=&quot;color: #cc7832&quot;&gt;if &lt;/span&gt;(&lt;span style=&quot;color: #cc7832&quot;&gt;this&lt;/span&gt;.&lt;span style=&quot;color: #9876aa&quot;&gt;currentInterceptorIndex &lt;/span&gt;== &lt;span style=&quot;color: #cc7832&quot;&gt;this&lt;/span&gt;.&lt;span style=&quot;color: #9876aa&quot;&gt;interceptorsAndDynamicMethodMatchers&lt;/span&gt;.size() - &lt;span style=&quot;color: #6897bb&quot;&gt;1&lt;/span&gt;) {&lt;br&gt;   &lt;span style=&quot;color: #cc7832&quot;&gt;return &lt;/span&gt;invokeJoinpoint()&lt;span style=&quot;color: #cc7832&quot;&gt;;&lt;br&gt;&lt;/span&gt;}&lt;br&gt;&lt;/pre&gt;" style="text;whiteSpace=wrap;html=1;fontSize=12;fontColor=#000000;" parent="bF5vYxYyOjAi4rwTEDQr-1" vertex="1">
          <mxGeometry x="900" y="1209" width="600" height="100" as="geometry" />
        </mxCell>
        <mxCell id="2IIuYGpbAV8Tqa_VImtP-59" value="" style="group" parent="bF5vYxYyOjAi4rwTEDQr-1" vertex="1" connectable="0">
          <mxGeometry x="910" y="1320" width="550" height="110" as="geometry" />
        </mxCell>
        <mxCell id="2IIuYGpbAV8Tqa_VImtP-57" value="&lt;pre style=&quot;background-color: #2b2b2b ; color: #a9b7c6 ; font-family: &amp;quot;jetbrains mono&amp;quot; ; font-size: 9.8pt&quot;&gt;&lt;span style=&quot;color: #629755 ; font-style: italic&quot;&gt;/**&lt;br&gt;&lt;/span&gt;&lt;span style=&quot;color: #629755 ; font-style: italic&quot;&gt; * &lt;/span&gt;&lt;span style=&quot;color: #629755 ; font-style: italic ; font-family: &amp;quot;courier new&amp;quot;&quot;&gt;获取第一个方法拦截器使用的是先&lt;/span&gt;&lt;span style=&quot;color: #629755 ; font-style: italic&quot;&gt;++&lt;br&gt;&lt;/span&gt;&lt;span style=&quot;color: #629755 ; font-style: italic&quot;&gt; */&lt;br&gt;&lt;/span&gt;Object interceptorOrInterceptionAdvice =&lt;br&gt;      &lt;span style=&quot;color: #cc7832&quot;&gt;this&lt;/span&gt;.&lt;span style=&quot;color: #9876aa&quot;&gt;interceptorsAndDynamicMethodMatchers&lt;/span&gt;.get(++&lt;span style=&quot;color: #cc7832&quot;&gt;this&lt;/span&gt;.&lt;span style=&quot;color: #9876aa&quot;&gt;currentInterceptorIndex&lt;/span&gt;)&lt;span style=&quot;color: #cc7832&quot;&gt;;&lt;br&gt;&lt;/span&gt;&lt;/pre&gt;" style="text;whiteSpace=wrap;html=1;fontSize=12;fontColor=#000000;" parent="2IIuYGpbAV8Tqa_VImtP-59" vertex="1">
          <mxGeometry width="550" height="110" as="geometry" />
        </mxCell>
        <mxCell id="2IIuYGpbAV8Tqa_VImtP-58" value="" style="rounded=0;whiteSpace=wrap;html=1;fontSize=12;fontColor=#000000;strokeWidth=2;verticalAlign=middle;fillColor=none;strokeColor=#CC0000;" parent="2IIuYGpbAV8Tqa_VImtP-59" vertex="1">
          <mxGeometry x="340" y="80" width="200" height="20" as="geometry" />
        </mxCell>
        <mxCell id="2IIuYGpbAV8Tqa_VImtP-141" value="" style="group" parent="bF5vYxYyOjAi4rwTEDQr-1" vertex="1" connectable="0">
          <mxGeometry x="920" y="970" width="2360" height="180" as="geometry" />
        </mxCell>
        <mxCell id="2IIuYGpbAV8Tqa_VImtP-135" value="" style="rounded=0;whiteSpace=wrap;html=1;fontSize=20;fontColor=#000000;strokeWidth=2;verticalAlign=middle;fillColor=#000000;" parent="2IIuYGpbAV8Tqa_VImtP-141" vertex="1">
          <mxGeometry width="2360" height="180" as="geometry" />
        </mxCell>
        <mxCell id="2IIuYGpbAV8Tqa_VImtP-140" value="&lt;p style=&quot;line-height: 130%&quot;&gt;&lt;font color=&quot;#ff3333&quot;&gt;0&lt;/font&gt;&lt;span&gt;&amp;nbsp;=&amp;nbsp;&lt;/span&gt;&lt;font color=&quot;#999999&quot;&gt;{ExposeInvocationInterceptor@5742}&lt;/font&gt;&lt;span&gt;&amp;nbsp;&lt;/span&gt;&lt;br&gt;&lt;font color=&quot;#ff3333&quot;&gt;1&lt;/font&gt;&lt;span&gt;&amp;nbsp;=&amp;nbsp;&lt;/span&gt;&lt;font color=&quot;#999999&quot;&gt;{AspectJAroundAdvice@5743}&lt;/font&gt;&lt;span&gt;&amp;nbsp;&lt;/span&gt;&lt;font color=&quot;#ffffff&quot;&gt;&quot;org.springframework.aop.aspectj.AspectJAroundAdvice: advice method [public java.lang.Object com.example.demo.AspectConfig.aroundAdvice(org.aspectj.lang.ProceedingJoinPoint)]; aspect name &#39;aspectConfig&#39;&quot;&lt;/font&gt;&lt;br&gt;&lt;font color=&quot;#ff3333&quot;&gt;2&lt;/font&gt;&lt;span&gt;&amp;nbsp;=&amp;nbsp;&lt;/span&gt;&lt;font color=&quot;#999999&quot;&gt;{MethodBeforeAdviceInterceptor@5744}&lt;/font&gt;&lt;span&gt;&amp;nbsp;&lt;/span&gt;&lt;br&gt;&lt;font color=&quot;#ff3333&quot;&gt;3&lt;/font&gt;&lt;span&gt;&amp;nbsp;=&amp;nbsp;&lt;/span&gt;&lt;font color=&quot;#999999&quot;&gt;{AspectJAfterAdvice@5745}&lt;/font&gt;&lt;span&gt;&amp;nbsp;&lt;/span&gt;&lt;font color=&quot;#ffffff&quot;&gt;&quot;org.springframework.aop.aspectj.AspectJAfterAdvice: advice method [public void com.example.demo.AspectConfig.afterAdvice()]; aspect name &#39;aspectConfig&#39;&quot;&lt;/font&gt;&lt;br&gt;&lt;font color=&quot;#ff3333&quot;&gt;4&lt;/font&gt;&lt;span&gt;&amp;nbsp;=&amp;nbsp;&lt;/span&gt;&lt;font color=&quot;#999999&quot;&gt;{AfterReturningAdviceInterceptor@5746}&lt;/font&gt;&lt;span&gt;&amp;nbsp;&lt;/span&gt;&lt;br&gt;&lt;font color=&quot;#ff3333&quot;&gt;5&lt;/font&gt;&lt;span&gt;&amp;nbsp;=&amp;nbsp;&lt;/span&gt;&lt;font color=&quot;#999999&quot;&gt;{AspectJAfterThrowingAdvice@5747}&lt;/font&gt;&lt;span&gt;&amp;nbsp;&lt;/span&gt;&lt;font color=&quot;#ffffff&quot;&gt;&quot;org.springframework.aop.aspectj.AspectJAfterThrowingAdvice: advice method [public void com.example.demo.AspectConfig.afterThrowing()]; aspect name &#39;aspectConfig&#39;&quot;&lt;/font&gt;&lt;/p&gt;" style="rounded=0;whiteSpace=wrap;html=1;fontSize=20;fontColor=#000000;strokeColor=#000000;strokeWidth=2;fillColor=none;verticalAlign=middle;align=left;" parent="2IIuYGpbAV8Tqa_VImtP-141" vertex="1">
          <mxGeometry x="63.88999999999987" y="5" width="2226.11" height="160" as="geometry" />
        </mxCell>
        <mxCell id="2IIuYGpbAV8Tqa_VImtP-99" value="" style="group" parent="2IIuYGpbAV8Tqa_VImtP-141" vertex="1" connectable="0">
          <mxGeometry x="10.649350649350708" y="14" width="41.53246753246753" height="12.000000000000002" as="geometry" />
        </mxCell>
        <mxCell id="2IIuYGpbAV8Tqa_VImtP-100" value="" style="group" parent="2IIuYGpbAV8Tqa_VImtP-99" vertex="1" connectable="0">
          <mxGeometry x="21.298701298701296" width="20.23376623376624" height="12.000000000000002" as="geometry" />
        </mxCell>
        <mxCell id="2IIuYGpbAV8Tqa_VImtP-101" value="" style="endArrow=none;html=1;fontSize=20;fontColor=#000000;strokeWidth=4;strokeColor=#FFB366;" parent="2IIuYGpbAV8Tqa_VImtP-100" edge="1">
          <mxGeometry width="50" height="50" relative="1" as="geometry">
            <mxPoint as="sourcePoint" />
            <mxPoint x="20.23376623376624" as="targetPoint" />
          </mxGeometry>
        </mxCell>
        <mxCell id="2IIuYGpbAV8Tqa_VImtP-102" value="" style="endArrow=none;html=1;fontSize=20;fontColor=#000000;strokeWidth=4;strokeColor=#FFB366;" parent="2IIuYGpbAV8Tqa_VImtP-100" edge="1">
          <mxGeometry width="50" height="50" relative="1" as="geometry">
            <mxPoint y="6.000000000000001" as="sourcePoint" />
            <mxPoint x="20.233766233765753" y="6.000000000000001" as="targetPoint" />
            <Array as="points">
              <mxPoint y="6.000000000000001" />
            </Array>
          </mxGeometry>
        </mxCell>
        <mxCell id="2IIuYGpbAV8Tqa_VImtP-103" value="" style="endArrow=none;html=1;fontSize=20;fontColor=#000000;strokeWidth=4;strokeColor=#FFB366;" parent="2IIuYGpbAV8Tqa_VImtP-100" edge="1">
          <mxGeometry width="50" height="50" relative="1" as="geometry">
            <mxPoint y="12.000000000000002" as="sourcePoint" />
            <mxPoint x="20.233766233765753" y="12.000000000000002" as="targetPoint" />
          </mxGeometry>
        </mxCell>
        <mxCell id="2IIuYGpbAV8Tqa_VImtP-104" value="" style="triangle;whiteSpace=wrap;html=1;fontSize=20;fontColor=#000000;strokeColor=#000000;strokeWidth=2;fillColor=#ffffff;verticalAlign=middle;" parent="2IIuYGpbAV8Tqa_VImtP-99" vertex="1">
          <mxGeometry width="10.649350649350648" height="10" as="geometry" />
        </mxCell>
        <mxCell id="2IIuYGpbAV8Tqa_VImtP-105" value="" style="group" parent="2IIuYGpbAV8Tqa_VImtP-141" vertex="1" connectable="0">
          <mxGeometry x="10.649350649350708" y="40" width="41.53246753246753" height="12.000000000000002" as="geometry" />
        </mxCell>
        <mxCell id="2IIuYGpbAV8Tqa_VImtP-106" value="" style="group" parent="2IIuYGpbAV8Tqa_VImtP-105" vertex="1" connectable="0">
          <mxGeometry x="21.298701298701296" width="20.23376623376624" height="12.000000000000002" as="geometry" />
        </mxCell>
        <mxCell id="2IIuYGpbAV8Tqa_VImtP-107" value="" style="endArrow=none;html=1;fontSize=20;fontColor=#000000;strokeWidth=4;strokeColor=#FFB366;" parent="2IIuYGpbAV8Tqa_VImtP-106" edge="1">
          <mxGeometry width="50" height="50" relative="1" as="geometry">
            <mxPoint as="sourcePoint" />
            <mxPoint x="20.23376623376624" as="targetPoint" />
          </mxGeometry>
        </mxCell>
        <mxCell id="2IIuYGpbAV8Tqa_VImtP-108" value="" style="endArrow=none;html=1;fontSize=20;fontColor=#000000;strokeWidth=4;strokeColor=#FFB366;" parent="2IIuYGpbAV8Tqa_VImtP-106" edge="1">
          <mxGeometry width="50" height="50" relative="1" as="geometry">
            <mxPoint y="6.000000000000001" as="sourcePoint" />
            <mxPoint x="20.233766233765753" y="6.000000000000001" as="targetPoint" />
            <Array as="points">
              <mxPoint y="6.000000000000001" />
            </Array>
          </mxGeometry>
        </mxCell>
        <mxCell id="2IIuYGpbAV8Tqa_VImtP-109" value="" style="endArrow=none;html=1;fontSize=20;fontColor=#000000;strokeWidth=4;strokeColor=#FFB366;" parent="2IIuYGpbAV8Tqa_VImtP-106" edge="1">
          <mxGeometry width="50" height="50" relative="1" as="geometry">
            <mxPoint y="12.000000000000002" as="sourcePoint" />
            <mxPoint x="20.233766233765753" y="12.000000000000002" as="targetPoint" />
          </mxGeometry>
        </mxCell>
        <mxCell id="2IIuYGpbAV8Tqa_VImtP-110" value="" style="triangle;whiteSpace=wrap;html=1;fontSize=20;fontColor=#000000;strokeColor=#000000;strokeWidth=2;fillColor=#ffffff;verticalAlign=middle;" parent="2IIuYGpbAV8Tqa_VImtP-105" vertex="1">
          <mxGeometry width="10.649350649350648" height="10" as="geometry" />
        </mxCell>
        <mxCell id="2IIuYGpbAV8Tqa_VImtP-111" value="" style="group" parent="2IIuYGpbAV8Tqa_VImtP-141" vertex="1" connectable="0">
          <mxGeometry x="10.649350649350708" y="65" width="41.53246753246753" height="12.000000000000002" as="geometry" />
        </mxCell>
        <mxCell id="2IIuYGpbAV8Tqa_VImtP-112" value="" style="group" parent="2IIuYGpbAV8Tqa_VImtP-111" vertex="1" connectable="0">
          <mxGeometry x="21.298701298701296" width="20.23376623376624" height="12.000000000000002" as="geometry" />
        </mxCell>
        <mxCell id="2IIuYGpbAV8Tqa_VImtP-113" value="" style="endArrow=none;html=1;fontSize=20;fontColor=#000000;strokeWidth=4;strokeColor=#FFB366;" parent="2IIuYGpbAV8Tqa_VImtP-112" edge="1">
          <mxGeometry width="50" height="50" relative="1" as="geometry">
            <mxPoint as="sourcePoint" />
            <mxPoint x="20.23376623376624" as="targetPoint" />
          </mxGeometry>
        </mxCell>
        <mxCell id="2IIuYGpbAV8Tqa_VImtP-114" value="" style="endArrow=none;html=1;fontSize=20;fontColor=#000000;strokeWidth=4;strokeColor=#FFB366;" parent="2IIuYGpbAV8Tqa_VImtP-112" edge="1">
          <mxGeometry width="50" height="50" relative="1" as="geometry">
            <mxPoint y="6.000000000000001" as="sourcePoint" />
            <mxPoint x="20.233766233765753" y="6.000000000000001" as="targetPoint" />
            <Array as="points">
              <mxPoint y="6.000000000000001" />
            </Array>
          </mxGeometry>
        </mxCell>
        <mxCell id="2IIuYGpbAV8Tqa_VImtP-115" value="" style="endArrow=none;html=1;fontSize=20;fontColor=#000000;strokeWidth=4;strokeColor=#FFB366;" parent="2IIuYGpbAV8Tqa_VImtP-112" edge="1">
          <mxGeometry width="50" height="50" relative="1" as="geometry">
            <mxPoint y="12.000000000000002" as="sourcePoint" />
            <mxPoint x="20.233766233765753" y="12.000000000000002" as="targetPoint" />
          </mxGeometry>
        </mxCell>
        <mxCell id="2IIuYGpbAV8Tqa_VImtP-116" value="" style="triangle;whiteSpace=wrap;html=1;fontSize=20;fontColor=#000000;strokeColor=#000000;strokeWidth=2;fillColor=#ffffff;verticalAlign=middle;" parent="2IIuYGpbAV8Tqa_VImtP-111" vertex="1">
          <mxGeometry width="10.649350649350648" height="10" as="geometry" />
        </mxCell>
        <mxCell id="2IIuYGpbAV8Tqa_VImtP-117" value="" style="group" parent="2IIuYGpbAV8Tqa_VImtP-141" vertex="1" connectable="0">
          <mxGeometry x="10.649350649350708" y="90" width="41.53246753246753" height="12.000000000000002" as="geometry" />
        </mxCell>
        <mxCell id="2IIuYGpbAV8Tqa_VImtP-118" value="" style="group" parent="2IIuYGpbAV8Tqa_VImtP-117" vertex="1" connectable="0">
          <mxGeometry x="21.298701298701296" width="20.23376623376624" height="12.000000000000002" as="geometry" />
        </mxCell>
        <mxCell id="2IIuYGpbAV8Tqa_VImtP-119" value="" style="endArrow=none;html=1;fontSize=20;fontColor=#000000;strokeWidth=4;strokeColor=#FFB366;" parent="2IIuYGpbAV8Tqa_VImtP-118" edge="1">
          <mxGeometry width="50" height="50" relative="1" as="geometry">
            <mxPoint as="sourcePoint" />
            <mxPoint x="20.23376623376624" as="targetPoint" />
          </mxGeometry>
        </mxCell>
        <mxCell id="2IIuYGpbAV8Tqa_VImtP-120" value="" style="endArrow=none;html=1;fontSize=20;fontColor=#000000;strokeWidth=4;strokeColor=#FFB366;" parent="2IIuYGpbAV8Tqa_VImtP-118" edge="1">
          <mxGeometry width="50" height="50" relative="1" as="geometry">
            <mxPoint y="6.000000000000001" as="sourcePoint" />
            <mxPoint x="20.233766233765753" y="6.000000000000001" as="targetPoint" />
            <Array as="points">
              <mxPoint y="6.000000000000001" />
            </Array>
          </mxGeometry>
        </mxCell>
        <mxCell id="2IIuYGpbAV8Tqa_VImtP-121" value="" style="endArrow=none;html=1;fontSize=20;fontColor=#000000;strokeWidth=4;strokeColor=#FFB366;" parent="2IIuYGpbAV8Tqa_VImtP-118" edge="1">
          <mxGeometry width="50" height="50" relative="1" as="geometry">
            <mxPoint y="12.000000000000002" as="sourcePoint" />
            <mxPoint x="20.233766233765753" y="12.000000000000002" as="targetPoint" />
          </mxGeometry>
        </mxCell>
        <mxCell id="2IIuYGpbAV8Tqa_VImtP-122" value="" style="triangle;whiteSpace=wrap;html=1;fontSize=20;fontColor=#000000;strokeColor=#000000;strokeWidth=2;fillColor=#ffffff;verticalAlign=middle;" parent="2IIuYGpbAV8Tqa_VImtP-117" vertex="1">
          <mxGeometry width="10.649350649350648" height="10" as="geometry" />
        </mxCell>
        <mxCell id="2IIuYGpbAV8Tqa_VImtP-123" value="" style="group" parent="2IIuYGpbAV8Tqa_VImtP-141" vertex="1" connectable="0">
          <mxGeometry x="10.649350649350708" y="116" width="41.53246753246753" height="12.000000000000002" as="geometry" />
        </mxCell>
        <mxCell id="2IIuYGpbAV8Tqa_VImtP-124" value="" style="group" parent="2IIuYGpbAV8Tqa_VImtP-123" vertex="1" connectable="0">
          <mxGeometry x="21.298701298701296" width="20.23376623376624" height="12.000000000000002" as="geometry" />
        </mxCell>
        <mxCell id="2IIuYGpbAV8Tqa_VImtP-125" value="" style="endArrow=none;html=1;fontSize=20;fontColor=#000000;strokeWidth=4;strokeColor=#FFB366;" parent="2IIuYGpbAV8Tqa_VImtP-124" edge="1">
          <mxGeometry width="50" height="50" relative="1" as="geometry">
            <mxPoint as="sourcePoint" />
            <mxPoint x="20.23376623376624" as="targetPoint" />
          </mxGeometry>
        </mxCell>
        <mxCell id="2IIuYGpbAV8Tqa_VImtP-126" value="" style="endArrow=none;html=1;fontSize=20;fontColor=#000000;strokeWidth=4;strokeColor=#FFB366;" parent="2IIuYGpbAV8Tqa_VImtP-124" edge="1">
          <mxGeometry width="50" height="50" relative="1" as="geometry">
            <mxPoint y="6.000000000000001" as="sourcePoint" />
            <mxPoint x="20.233766233765753" y="6.000000000000001" as="targetPoint" />
            <Array as="points">
              <mxPoint y="6.000000000000001" />
            </Array>
          </mxGeometry>
        </mxCell>
        <mxCell id="2IIuYGpbAV8Tqa_VImtP-127" value="" style="endArrow=none;html=1;fontSize=20;fontColor=#000000;strokeWidth=4;strokeColor=#FFB366;" parent="2IIuYGpbAV8Tqa_VImtP-124" edge="1">
          <mxGeometry width="50" height="50" relative="1" as="geometry">
            <mxPoint y="12.000000000000002" as="sourcePoint" />
            <mxPoint x="20.233766233765753" y="12.000000000000002" as="targetPoint" />
          </mxGeometry>
        </mxCell>
        <mxCell id="2IIuYGpbAV8Tqa_VImtP-128" value="" style="triangle;whiteSpace=wrap;html=1;fontSize=20;fontColor=#000000;strokeColor=#000000;strokeWidth=2;fillColor=#ffffff;verticalAlign=middle;" parent="2IIuYGpbAV8Tqa_VImtP-123" vertex="1">
          <mxGeometry width="10.649350649350648" height="10" as="geometry" />
        </mxCell>
        <mxCell id="2IIuYGpbAV8Tqa_VImtP-129" value="" style="group" parent="2IIuYGpbAV8Tqa_VImtP-141" vertex="1" connectable="0">
          <mxGeometry x="10.649350649350708" y="140" width="41.53246753246753" height="12.000000000000002" as="geometry" />
        </mxCell>
        <mxCell id="2IIuYGpbAV8Tqa_VImtP-130" value="" style="group" parent="2IIuYGpbAV8Tqa_VImtP-129" vertex="1" connectable="0">
          <mxGeometry x="21.298701298701296" width="20.23376623376624" height="12.000000000000002" as="geometry" />
        </mxCell>
        <mxCell id="2IIuYGpbAV8Tqa_VImtP-131" value="" style="endArrow=none;html=1;fontSize=20;fontColor=#000000;strokeWidth=4;strokeColor=#FFB366;" parent="2IIuYGpbAV8Tqa_VImtP-130" edge="1">
          <mxGeometry width="50" height="50" relative="1" as="geometry">
            <mxPoint as="sourcePoint" />
            <mxPoint x="20.23376623376624" as="targetPoint" />
          </mxGeometry>
        </mxCell>
        <mxCell id="2IIuYGpbAV8Tqa_VImtP-132" value="" style="endArrow=none;html=1;fontSize=20;fontColor=#000000;strokeWidth=4;strokeColor=#FFB366;" parent="2IIuYGpbAV8Tqa_VImtP-130" edge="1">
          <mxGeometry width="50" height="50" relative="1" as="geometry">
            <mxPoint y="6.000000000000001" as="sourcePoint" />
            <mxPoint x="20.233766233765753" y="6.000000000000001" as="targetPoint" />
            <Array as="points">
              <mxPoint y="6.000000000000001" />
            </Array>
          </mxGeometry>
        </mxCell>
        <mxCell id="2IIuYGpbAV8Tqa_VImtP-133" value="" style="endArrow=none;html=1;fontSize=20;fontColor=#000000;strokeWidth=4;strokeColor=#FFB366;" parent="2IIuYGpbAV8Tqa_VImtP-130" edge="1">
          <mxGeometry width="50" height="50" relative="1" as="geometry">
            <mxPoint y="12.000000000000002" as="sourcePoint" />
            <mxPoint x="20.233766233765753" y="12.000000000000002" as="targetPoint" />
          </mxGeometry>
        </mxCell>
        <mxCell id="2IIuYGpbAV8Tqa_VImtP-134" value="" style="triangle;whiteSpace=wrap;html=1;fontSize=20;fontColor=#000000;strokeColor=#000000;strokeWidth=2;fillColor=#ffffff;verticalAlign=middle;" parent="2IIuYGpbAV8Tqa_VImtP-129" vertex="1">
          <mxGeometry width="10.649350649350648" height="10" as="geometry" />
        </mxCell>
        <mxCell id="2IIuYGpbAV8Tqa_VImtP-56" style="edgeStyle=orthogonalEdgeStyle;rounded=0;orthogonalLoop=1;jettySize=auto;html=1;exitX=1;exitY=0.5;exitDx=0;exitDy=0;fontSize=12;fontColor=#000000;startArrow=none;startFill=0;endArrow=oval;endFill=0;strokeWidth=2;dashed=1;strokeColor=#666666;entryX=-0.005;entryY=0.574;entryDx=0;entryDy=0;entryPerimeter=0;" parent="bF5vYxYyOjAi4rwTEDQr-1" source="2IIuYGpbAV8Tqa_VImtP-54" target="2IIuYGpbAV8Tqa_VImtP-57" edge="1">
          <mxGeometry relative="1" as="geometry">
            <mxPoint x="740" y="1390.5" as="sourcePoint" />
            <mxPoint x="900" y="1390" as="targetPoint" />
          </mxGeometry>
        </mxCell>
        <mxCell id="2IIuYGpbAV8Tqa_VImtP-53" style="edgeStyle=orthogonalEdgeStyle;rounded=0;orthogonalLoop=1;jettySize=auto;html=1;exitX=1;exitY=0.5;exitDx=0;exitDy=0;entryX=0;entryY=0.5;entryDx=0;entryDy=0;fontSize=12;fontColor=#000000;startArrow=none;startFill=0;endArrow=oval;endFill=0;strokeWidth=2;dashed=1;strokeColor=#666666;" parent="bF5vYxYyOjAi4rwTEDQr-1" source="2IIuYGpbAV8Tqa_VImtP-48" target="2IIuYGpbAV8Tqa_VImtP-52" edge="1">
          <mxGeometry relative="1" as="geometry" />
        </mxCell>
        <mxCell id="2IIuYGpbAV8Tqa_VImtP-50" value="最终调用被代理的方法" style="whiteSpace=wrap;html=1;strokeColor=#A9C4EB;strokeWidth=2;fillColor=#D4E1F5;" parent="bF5vYxYyOjAi4rwTEDQr-1" vertex="1">
          <mxGeometry x="69.99999999999997" y="1242.37" width="120" height="60" as="geometry" />
        </mxCell>
        <mxCell id="2IIuYGpbAV8Tqa_VImtP-51" value="" style="edgeStyle=orthogonalEdgeStyle;rounded=0;orthogonalLoop=1;jettySize=auto;html=1;fontSize=12;fontColor=#000000;startArrow=none;startFill=0;endArrow=classic;endFill=1;strokeColor=#000000;strokeWidth=2;" parent="bF5vYxYyOjAi4rwTEDQr-1" source="2IIuYGpbAV8Tqa_VImtP-48" target="2IIuYGpbAV8Tqa_VImtP-50" edge="1">
          <mxGeometry x="69.99999999999997" y="1149" as="geometry" />
        </mxCell>
        <mxCell id="2IIuYGpbAV8Tqa_VImtP-175" value="" style="group" parent="bF5vYxYyOjAi4rwTEDQr-1" vertex="1" connectable="0">
          <mxGeometry x="250" y="1149" width="490" height="650" as="geometry" />
        </mxCell>
        <mxCell id="2IIuYGpbAV8Tqa_VImtP-41" value="" style="whiteSpace=wrap;html=1;strokeWidth=2;fillColor=#FFCCFF;" parent="2IIuYGpbAV8Tqa_VImtP-175" vertex="1">
          <mxGeometry x="60" y="20" width="430" height="630" as="geometry" />
        </mxCell>
        <mxCell id="2IIuYGpbAV8Tqa_VImtP-43" value="&lt;font style=&quot;font-weight: bold ; font-size: 15px&quot;&gt;ReflectiveMethodInvocation&lt;/font&gt;&lt;font style=&quot;font-size: 15px&quot;&gt;#proceed&lt;/font&gt;" style="text;html=1;strokeColor=none;fillColor=none;align=center;verticalAlign=middle;whiteSpace=wrap;rounded=0;fontSize=12;fontColor=#000000;" parent="2IIuYGpbAV8Tqa_VImtP-175" vertex="1">
          <mxGeometry x="136.01999999999998" y="20" width="270" height="72.47619047619047" as="geometry" />
        </mxCell>
        <mxCell id="2IIuYGpbAV8Tqa_VImtP-48" value="递归出口&lt;br&gt;调用到了最后一个拦截器？&lt;br&gt;this.currentinterceptorIndex == -1?" style="rhombus;whiteSpace=wrap;html=1;fontSize=12;fontColor=#000000;strokeColor=#A9C4EB;strokeWidth=2;verticalAlign=middle;fillColor=#D4E1F5;" parent="2IIuYGpbAV8Tqa_VImtP-175" vertex="1">
          <mxGeometry x="164" y="76.73000000000002" width="261.02" height="93.27" as="geometry" />
        </mxCell>
        <mxCell id="2IIuYGpbAV8Tqa_VImtP-54" value="获取第一个方法拦截器&lt;br&gt;++this.currentInterceptorIndex" style="whiteSpace=wrap;html=1;strokeColor=#A9C4EB;strokeWidth=2;fillColor=#D4E1F5;" parent="2IIuYGpbAV8Tqa_VImtP-175" vertex="1">
          <mxGeometry x="196.25" y="211" width="196.51" height="55.73" as="geometry" />
        </mxCell>
        <mxCell id="2IIuYGpbAV8Tqa_VImtP-55" value="" style="edgeStyle=orthogonalEdgeStyle;rounded=0;orthogonalLoop=1;jettySize=auto;html=1;fontSize=12;fontColor=#000000;startArrow=none;startFill=0;endArrow=classic;endFill=1;strokeColor=#000000;strokeWidth=2;" parent="2IIuYGpbAV8Tqa_VImtP-175" source="2IIuYGpbAV8Tqa_VImtP-48" target="2IIuYGpbAV8Tqa_VImtP-54" edge="1">
          <mxGeometry x="11.019999999999982" y="20" as="geometry" />
        </mxCell>
        <mxCell id="2IIuYGpbAV8Tqa_VImtP-164" style="edgeStyle=orthogonalEdgeStyle;rounded=0;orthogonalLoop=1;jettySize=auto;html=1;exitX=0;exitY=0.5;exitDx=0;exitDy=0;entryX=0.25;entryY=0;entryDx=0;entryDy=0;fontSize=20;fontColor=#000000;startArrow=none;startFill=0;endArrow=classic;endFill=1;strokeColor=#000000;strokeWidth=2;" parent="2IIuYGpbAV8Tqa_VImtP-175" source="2IIuYGpbAV8Tqa_VImtP-60" target="2IIuYGpbAV8Tqa_VImtP-43" edge="1">
          <mxGeometry x="60" y="20" as="geometry">
            <Array as="points">
              <mxPoint y="368" />
              <mxPoint />
              <mxPoint x="204" />
            </Array>
          </mxGeometry>
        </mxCell>
        <mxCell id="2IIuYGpbAV8Tqa_VImtP-169" value="0" style="edgeLabel;html=1;align=center;verticalAlign=middle;resizable=0;points=[];fontSize=20;fontColor=#000000;" parent="2IIuYGpbAV8Tqa_VImtP-164" vertex="1" connectable="0">
          <mxGeometry x="-0.8022" y="-3" relative="1" as="geometry">
            <mxPoint as="offset" />
          </mxGeometry>
        </mxCell>
        <mxCell id="2IIuYGpbAV8Tqa_VImtP-60" value="&lt;b&gt;&lt;font style=&quot;font-size: 15px&quot; color=&quot;#006600&quot;&gt;ExposeInvocationInterceptor&lt;/font&gt;&lt;/b&gt;&lt;font style=&quot;font-size: 15px&quot;&gt;#invoke&lt;/font&gt;" style="rounded=0;whiteSpace=wrap;html=1;fontSize=12;fontColor=#000000;strokeWidth=2;verticalAlign=middle;fillColor=#FF6666;" parent="2IIuYGpbAV8Tqa_VImtP-175" vertex="1">
          <mxGeometry x="100" y="341" width="267.02" height="53.53" as="geometry" />
        </mxCell>
        <mxCell id="2IIuYGpbAV8Tqa_VImtP-61" value="" style="edgeStyle=orthogonalEdgeStyle;rounded=0;orthogonalLoop=1;jettySize=auto;html=1;fontSize=12;fontColor=#000000;startArrow=none;startFill=0;endArrow=classic;endFill=1;strokeWidth=2;entryX=1;entryY=0.5;entryDx=0;entryDy=0;" parent="2IIuYGpbAV8Tqa_VImtP-175" source="2IIuYGpbAV8Tqa_VImtP-54" target="2IIuYGpbAV8Tqa_VImtP-60" edge="1">
          <mxGeometry x="11.019999999999982" y="20" as="geometry">
            <Array as="points">
              <mxPoint x="295.02" y="311" />
              <mxPoint x="450.02" y="311" />
              <mxPoint x="450.02" y="368" />
            </Array>
          </mxGeometry>
        </mxCell>
        <mxCell id="2IIuYGpbAV8Tqa_VImtP-69" value="0" style="edgeLabel;html=1;align=center;verticalAlign=middle;resizable=0;points=[];fontSize=20;fontColor=#000000;" parent="2IIuYGpbAV8Tqa_VImtP-61" vertex="1" connectable="0">
          <mxGeometry x="0.8694" y="-2" relative="1" as="geometry">
            <mxPoint as="offset" />
          </mxGeometry>
        </mxCell>
        <mxCell id="2IIuYGpbAV8Tqa_VImtP-165" style="edgeStyle=orthogonalEdgeStyle;rounded=0;orthogonalLoop=1;jettySize=auto;html=1;exitX=0;exitY=0.5;exitDx=0;exitDy=0;entryX=0.25;entryY=0;entryDx=0;entryDy=0;fontSize=20;fontColor=#000000;startArrow=none;startFill=0;endArrow=classic;endFill=1;strokeColor=#000000;strokeWidth=2;" parent="2IIuYGpbAV8Tqa_VImtP-175" source="2IIuYGpbAV8Tqa_VImtP-63" target="2IIuYGpbAV8Tqa_VImtP-43" edge="1">
          <mxGeometry x="60" y="20" as="geometry">
            <Array as="points">
              <mxPoint y="429" />
              <mxPoint />
              <mxPoint x="204" />
            </Array>
          </mxGeometry>
        </mxCell>
        <mxCell id="2IIuYGpbAV8Tqa_VImtP-170" value="1" style="edgeLabel;html=1;align=center;verticalAlign=middle;resizable=0;points=[];fontSize=20;fontColor=#000000;" parent="2IIuYGpbAV8Tqa_VImtP-165" vertex="1" connectable="0">
          <mxGeometry x="-0.8104" y="-1" relative="1" as="geometry">
            <mxPoint as="offset" />
          </mxGeometry>
        </mxCell>
        <mxCell id="2IIuYGpbAV8Tqa_VImtP-63" value="&lt;b&gt;&lt;font style=&quot;font-size: 15px&quot; color=&quot;#006600&quot;&gt;AspectJAfterThrowingAdvice&lt;/font&gt;&lt;/b&gt;&lt;font style=&quot;font-size: 15px&quot;&gt;#invoke&lt;/font&gt;" style="rounded=0;whiteSpace=wrap;html=1;fontSize=12;fontColor=#000000;strokeWidth=2;verticalAlign=middle;fillColor=#CCFFE6;" parent="2IIuYGpbAV8Tqa_VImtP-175" vertex="1">
          <mxGeometry x="100" y="411" width="267.02" height="36.67" as="geometry" />
        </mxCell>
        <mxCell id="2IIuYGpbAV8Tqa_VImtP-64" style="edgeStyle=orthogonalEdgeStyle;rounded=0;orthogonalLoop=1;jettySize=auto;html=1;exitX=0.5;exitY=1;exitDx=0;exitDy=0;entryX=1;entryY=0.5;entryDx=0;entryDy=0;fontSize=12;fontColor=#000000;startArrow=none;startFill=0;endArrow=classic;endFill=1;strokeColor=#000000;strokeWidth=2;" parent="2IIuYGpbAV8Tqa_VImtP-175" source="2IIuYGpbAV8Tqa_VImtP-54" target="2IIuYGpbAV8Tqa_VImtP-63" edge="1">
          <mxGeometry x="11.019999999999982" y="20" as="geometry">
            <Array as="points">
              <mxPoint x="294.02" y="311" />
              <mxPoint x="450.02" y="311" />
              <mxPoint x="450.02" y="429" />
            </Array>
          </mxGeometry>
        </mxCell>
        <mxCell id="2IIuYGpbAV8Tqa_VImtP-70" value="1" style="edgeLabel;html=1;align=center;verticalAlign=middle;resizable=0;points=[];fontSize=20;fontColor=#000000;" parent="2IIuYGpbAV8Tqa_VImtP-64" vertex="1" connectable="0">
          <mxGeometry x="0.8944" y="-2" relative="1" as="geometry">
            <mxPoint as="offset" />
          </mxGeometry>
        </mxCell>
        <mxCell id="2IIuYGpbAV8Tqa_VImtP-166" style="edgeStyle=orthogonalEdgeStyle;rounded=0;orthogonalLoop=1;jettySize=auto;html=1;exitX=0;exitY=0.5;exitDx=0;exitDy=0;entryX=0.25;entryY=0;entryDx=0;entryDy=0;fontSize=20;fontColor=#000000;startArrow=none;startFill=0;endArrow=classic;endFill=1;strokeColor=#000000;strokeWidth=2;" parent="2IIuYGpbAV8Tqa_VImtP-175" source="2IIuYGpbAV8Tqa_VImtP-66" target="2IIuYGpbAV8Tqa_VImtP-43" edge="1">
          <mxGeometry x="60" y="20" as="geometry">
            <Array as="points">
              <mxPoint y="486" />
              <mxPoint />
              <mxPoint x="204" />
            </Array>
          </mxGeometry>
        </mxCell>
        <mxCell id="2IIuYGpbAV8Tqa_VImtP-171" value="2" style="edgeLabel;html=1;align=center;verticalAlign=middle;resizable=0;points=[];fontSize=20;fontColor=#000000;" parent="2IIuYGpbAV8Tqa_VImtP-166" vertex="1" connectable="0">
          <mxGeometry x="-0.8262" y="-1" relative="1" as="geometry">
            <mxPoint as="offset" />
          </mxGeometry>
        </mxCell>
        <mxCell id="2IIuYGpbAV8Tqa_VImtP-66" value="&lt;b&gt;&lt;font style=&quot;font-size: 15px&quot; color=&quot;#006600&quot;&gt;AfterReturingAdviceInterceptor&lt;/font&gt;&lt;/b&gt;&lt;font style=&quot;font-size: 15px&quot;&gt;#&lt;br&gt;invoke&lt;/font&gt;" style="rounded=0;whiteSpace=wrap;html=1;fontSize=12;fontColor=#000000;strokeWidth=2;verticalAlign=middle;fillColor=#99FF99;" parent="2IIuYGpbAV8Tqa_VImtP-175" vertex="1">
          <mxGeometry x="100" y="461" width="267.02" height="49.82" as="geometry" />
        </mxCell>
        <mxCell id="2IIuYGpbAV8Tqa_VImtP-67" style="edgeStyle=orthogonalEdgeStyle;rounded=0;orthogonalLoop=1;jettySize=auto;html=1;exitX=0.5;exitY=1;exitDx=0;exitDy=0;entryX=1;entryY=0.5;entryDx=0;entryDy=0;fontSize=20;fontColor=#000000;startArrow=none;startFill=0;endArrow=classic;endFill=1;strokeColor=#000000;strokeWidth=2;" parent="2IIuYGpbAV8Tqa_VImtP-175" source="2IIuYGpbAV8Tqa_VImtP-54" target="2IIuYGpbAV8Tqa_VImtP-66" edge="1">
          <mxGeometry x="11.019999999999982" y="20" as="geometry">
            <Array as="points">
              <mxPoint x="294.02" y="311" />
              <mxPoint x="450.02" y="311" />
              <mxPoint x="450.02" y="486" />
            </Array>
          </mxGeometry>
        </mxCell>
        <mxCell id="2IIuYGpbAV8Tqa_VImtP-71" value="2" style="edgeLabel;html=1;align=center;verticalAlign=middle;resizable=0;points=[];fontSize=20;fontColor=#000000;" parent="2IIuYGpbAV8Tqa_VImtP-67" vertex="1" connectable="0">
          <mxGeometry x="0.8994" y="-1" relative="1" as="geometry">
            <mxPoint as="offset" />
          </mxGeometry>
        </mxCell>
        <mxCell id="2IIuYGpbAV8Tqa_VImtP-167" style="edgeStyle=orthogonalEdgeStyle;rounded=0;orthogonalLoop=1;jettySize=auto;html=1;exitX=0;exitY=0.5;exitDx=0;exitDy=0;entryX=0.25;entryY=0;entryDx=0;entryDy=0;fontSize=20;fontColor=#000000;startArrow=none;startFill=0;endArrow=classic;endFill=1;strokeColor=#000000;strokeWidth=2;" parent="2IIuYGpbAV8Tqa_VImtP-175" source="2IIuYGpbAV8Tqa_VImtP-157" target="2IIuYGpbAV8Tqa_VImtP-43" edge="1">
          <mxGeometry x="60" y="20" as="geometry">
            <Array as="points">
              <mxPoint y="546" />
              <mxPoint />
              <mxPoint x="204" />
            </Array>
          </mxGeometry>
        </mxCell>
        <mxCell id="2IIuYGpbAV8Tqa_VImtP-172" value="3" style="edgeLabel;html=1;align=center;verticalAlign=middle;resizable=0;points=[];fontSize=20;fontColor=#000000;" parent="2IIuYGpbAV8Tqa_VImtP-167" vertex="1" connectable="0">
          <mxGeometry x="-0.8359" y="-1" relative="1" as="geometry">
            <mxPoint as="offset" />
          </mxGeometry>
        </mxCell>
        <mxCell id="2IIuYGpbAV8Tqa_VImtP-157" value="&lt;b&gt;&lt;font style=&quot;font-size: 15px&quot; color=&quot;#006600&quot;&gt;AspectJAfterAdvice&lt;/font&gt;&lt;/b&gt;&lt;font style=&quot;font-size: 15px&quot;&gt;#invoke&lt;/font&gt;" style="rounded=0;whiteSpace=wrap;html=1;fontSize=12;fontColor=#000000;strokeWidth=2;verticalAlign=middle;fillColor=#9999FF;" parent="2IIuYGpbAV8Tqa_VImtP-175" vertex="1">
          <mxGeometry x="100" y="521" width="267.02" height="49.82" as="geometry" />
        </mxCell>
        <mxCell id="2IIuYGpbAV8Tqa_VImtP-158" style="edgeStyle=orthogonalEdgeStyle;rounded=0;orthogonalLoop=1;jettySize=auto;html=1;exitX=0.5;exitY=1;exitDx=0;exitDy=0;entryX=1;entryY=0.5;entryDx=0;entryDy=0;fontSize=20;fontColor=#000000;startArrow=none;startFill=0;endArrow=classic;endFill=1;strokeWidth=2;" parent="2IIuYGpbAV8Tqa_VImtP-175" source="2IIuYGpbAV8Tqa_VImtP-54" target="2IIuYGpbAV8Tqa_VImtP-157" edge="1">
          <mxGeometry x="11.019999999999982" y="20" as="geometry">
            <Array as="points">
              <mxPoint x="295.02" y="311" />
              <mxPoint x="450.02" y="311" />
              <mxPoint x="450.02" y="546" />
            </Array>
          </mxGeometry>
        </mxCell>
        <mxCell id="2IIuYGpbAV8Tqa_VImtP-159" value="3" style="edgeLabel;html=1;align=center;verticalAlign=middle;resizable=0;points=[];fontSize=20;fontColor=#000000;" parent="2IIuYGpbAV8Tqa_VImtP-158" vertex="1" connectable="0">
          <mxGeometry x="0.9111" y="-1" relative="1" as="geometry">
            <mxPoint as="offset" />
          </mxGeometry>
        </mxCell>
        <mxCell id="2IIuYGpbAV8Tqa_VImtP-168" style="edgeStyle=orthogonalEdgeStyle;rounded=0;orthogonalLoop=1;jettySize=auto;html=1;exitX=0;exitY=0.5;exitDx=0;exitDy=0;entryX=0.25;entryY=0;entryDx=0;entryDy=0;fontSize=20;fontColor=#000000;startArrow=none;startFill=0;endArrow=classic;endFill=1;strokeColor=#000000;strokeWidth=2;" parent="2IIuYGpbAV8Tqa_VImtP-175" source="2IIuYGpbAV8Tqa_VImtP-160" target="2IIuYGpbAV8Tqa_VImtP-43" edge="1">
          <mxGeometry x="60" y="20" as="geometry">
            <Array as="points">
              <mxPoint y="605" />
              <mxPoint />
              <mxPoint x="204" />
            </Array>
          </mxGeometry>
        </mxCell>
        <mxCell id="2IIuYGpbAV8Tqa_VImtP-173" value="4" style="edgeLabel;html=1;align=center;verticalAlign=middle;resizable=0;points=[];fontSize=20;fontColor=#000000;" parent="2IIuYGpbAV8Tqa_VImtP-168" vertex="1" connectable="0">
          <mxGeometry x="-0.8462" y="-1" relative="1" as="geometry">
            <mxPoint as="offset" />
          </mxGeometry>
        </mxCell>
        <mxCell id="2IIuYGpbAV8Tqa_VImtP-160" value="&lt;b&gt;&lt;font style=&quot;font-size: 15px&quot; color=&quot;#006600&quot;&gt;MethodBeforeAdviceInterceptor&lt;/font&gt;&lt;/b&gt;&lt;font style=&quot;font-size: 15px&quot;&gt;#&lt;br&gt;invoke&lt;/font&gt;" style="rounded=0;whiteSpace=wrap;html=1;fontSize=12;fontColor=#000000;strokeWidth=2;verticalAlign=middle;fillColor=#FF66B3;" parent="2IIuYGpbAV8Tqa_VImtP-175" vertex="1">
          <mxGeometry x="100" y="579.5899999999999" width="267.02" height="49.82" as="geometry" />
        </mxCell>
        <mxCell id="2IIuYGpbAV8Tqa_VImtP-161" style="edgeStyle=orthogonalEdgeStyle;rounded=0;orthogonalLoop=1;jettySize=auto;html=1;exitX=0.5;exitY=1;exitDx=0;exitDy=0;entryX=1;entryY=0.5;entryDx=0;entryDy=0;fontSize=20;fontColor=#000000;startArrow=none;startFill=0;endArrow=classic;endFill=1;strokeColor=#000000;strokeWidth=2;" parent="2IIuYGpbAV8Tqa_VImtP-175" source="2IIuYGpbAV8Tqa_VImtP-54" target="2IIuYGpbAV8Tqa_VImtP-160" edge="1">
          <mxGeometry x="11.019999999999982" y="20" as="geometry">
            <Array as="points">
              <mxPoint x="294.02" y="311" />
              <mxPoint x="450.02" y="311" />
              <mxPoint x="450.02" y="605" />
            </Array>
          </mxGeometry>
        </mxCell>
        <mxCell id="2IIuYGpbAV8Tqa_VImtP-162" value="4" style="edgeLabel;html=1;align=center;verticalAlign=middle;resizable=0;points=[];fontSize=20;fontColor=#000000;" parent="2IIuYGpbAV8Tqa_VImtP-161" vertex="1" connectable="0">
          <mxGeometry x="0.9195" relative="1" as="geometry">
            <mxPoint as="offset" />
          </mxGeometry>
        </mxCell>
        <mxCell id="2IIuYGpbAV8Tqa_VImtP-180" style="edgeStyle=orthogonalEdgeStyle;rounded=0;orthogonalLoop=1;jettySize=auto;html=1;exitX=0;exitY=0.5;exitDx=0;exitDy=0;entryX=0;entryY=0.5;entryDx=0;entryDy=0;fontSize=20;fontColor=#000000;startArrow=none;startFill=0;endArrow=classic;endFill=1;strokeColor=#000000;strokeWidth=2;curved=1;" parent="bF5vYxYyOjAi4rwTEDQr-1" edge="1">
          <mxGeometry relative="1" as="geometry">
            <mxPoint x="950" y="1743" as="sourcePoint" />
            <Array as="points">
              <mxPoint x="860" y="1743" />
              <mxPoint x="860" y="1960" />
            </Array>
          </mxGeometry>
        </mxCell>
        <mxCell id="2IIuYGpbAV8Tqa_VImtP-181" value="1" style="edgeLabel;html=1;align=center;verticalAlign=middle;resizable=0;points=[];fontSize=20;fontStyle=1;fontColor=#CC0000;" parent="2IIuYGpbAV8Tqa_VImtP-180" vertex="1" connectable="0">
          <mxGeometry x="-0.0918" relative="1" as="geometry">
            <mxPoint as="offset" />
          </mxGeometry>
        </mxCell>
        <mxCell id="2IIuYGpbAV8Tqa_VImtP-187" style="edgeStyle=orthogonalEdgeStyle;curved=1;rounded=0;orthogonalLoop=1;jettySize=auto;html=1;exitX=0;exitY=0.5;exitDx=0;exitDy=0;entryX=0;entryY=0.5;entryDx=0;entryDy=0;fontSize=20;fontColor=#CC0000;startArrow=none;startFill=0;endArrow=classic;endFill=1;strokeColor=#000000;strokeWidth=2;" parent="bF5vYxYyOjAi4rwTEDQr-1" edge="1">
          <mxGeometry relative="1" as="geometry">
            <mxPoint x="950" y="2225.0000000000005" as="targetPoint" />
            <Array as="points">
              <mxPoint x="860" y="1960" />
              <mxPoint x="860" y="2225" />
            </Array>
          </mxGeometry>
        </mxCell>
        <mxCell id="2IIuYGpbAV8Tqa_VImtP-188" value="2" style="edgeLabel;html=1;align=center;verticalAlign=middle;resizable=0;points=[];fontSize=20;fontColor=#CC0000;" parent="2IIuYGpbAV8Tqa_VImtP-187" vertex="1" connectable="0">
          <mxGeometry x="-0.0893" y="1" relative="1" as="geometry">
            <mxPoint as="offset" />
          </mxGeometry>
        </mxCell>
        <mxCell id="1n37X5XZOYJppBrc-e5R-0" value="&lt;div&gt;&lt;span&gt;	&lt;/span&gt;&lt;/div&gt;&lt;div&gt;&lt;span&gt;	&lt;/span&gt;&lt;/div&gt;&lt;div style=&quot;text-align: left ; font-size: 17px&quot;&gt;&lt;font style=&quot;font-size: 17px&quot; color=&quot;#ffff00&quot;&gt;	MethodInvocation oldInvocation = invocation.get();&lt;/font&gt;&lt;/div&gt;&lt;div style=&quot;text-align: left ; font-size: 17px&quot;&gt;&lt;font style=&quot;font-size: 17px&quot; color=&quot;#ffff00&quot;&gt;&lt;span&gt;	&lt;/span&gt;/** 记录当前正在执行的拦截器 */&lt;/font&gt;&lt;/div&gt;&lt;div style=&quot;text-align: left ; font-size: 17px&quot;&gt;&lt;font style=&quot;font-size: 17px&quot; color=&quot;#ffff00&quot;&gt;&lt;span&gt;	&lt;/span&gt;invocation.set(mi);&lt;/font&gt;&lt;/div&gt;&lt;div style=&quot;text-align: left ; font-size: 17px&quot;&gt;&lt;font style=&quot;font-size: 17px&quot; color=&quot;#ffff00&quot;&gt;	try{&lt;/font&gt;&lt;/div&gt;&lt;blockquote style=&quot;margin: 0 0 0 40px ; border: none ; padding: 0px&quot;&gt;&lt;div style=&quot;text-align: left ; font-size: 17px&quot;&gt;&lt;font style=&quot;font-size: 17px&quot; color=&quot;#cda2be&quot;&gt;try{&lt;/font&gt;&lt;/div&gt;&lt;/blockquote&gt;&lt;blockquote style=&quot;margin: 0 0 0 40px ; border: none ; padding: 0px&quot;&gt;&lt;blockquote style=&quot;margin: 0 0 0 40px ; border: none ; padding: 0px&quot;&gt;&lt;div style=&quot;text-align: left ; font-size: 17px&quot;&gt;&lt;font style=&quot;font-size: 17px&quot; color=&quot;#ff9999&quot;&gt;Object retVal;&lt;/font&gt;&lt;/div&gt;&lt;/blockquote&gt;&lt;blockquote style=&quot;margin: 0 0 0 40px ; border: none ; padding: 0px&quot;&gt;&lt;div style=&quot;text-align: left ; font-size: 17px&quot;&gt;&lt;font style=&quot;font-size: 17px&quot; color=&quot;#99ffff&quot;&gt;try{&lt;/font&gt;&lt;/div&gt;&lt;/blockquote&gt;&lt;/blockquote&gt;&lt;blockquote style=&quot;margin: 0 0 0 40px ; border: none ; padding: 0px&quot;&gt;&lt;blockquote style=&quot;margin: 0 0 0 40px ; border: none ; padding: 0px&quot;&gt;&lt;blockquote style=&quot;margin: 0 0 0 40px ; border: none ; padding: 0px&quot;&gt;&lt;div style=&quot;text-align: left ; font-size: 17px&quot;&gt;&lt;font style=&quot;font-size: 17px&quot; color=&quot;#ff33ff&quot;&gt;this.advice.before(mi.getMethod(),mi.getArguments(),mi.getThis());&lt;/font&gt;&lt;/div&gt;&lt;/blockquote&gt;&lt;/blockquote&gt;&lt;blockquote style=&quot;margin: 0 0 0 40px ; border: none ; padding: 0px&quot;&gt;&lt;blockquote style=&quot;margin: 0 0 0 40px ; border: none ; padding: 0px&quot;&gt;&lt;div style=&quot;text-align: left ; font-size: 17px&quot;&gt;&lt;font style=&quot;font-size: 17px&quot; color=&quot;#66ff66&quot;&gt;retVal = method.invoke(target,args);&lt;/font&gt;&lt;/div&gt;&lt;/blockquote&gt;&lt;/blockquote&gt;&lt;/blockquote&gt;&lt;blockquote style=&quot;margin: 0 0 0 40px ; border: none ; padding: 0px&quot;&gt;&lt;blockquote style=&quot;margin: 0 0 0 40px ; border: none ; padding: 0px&quot;&gt;&lt;div style=&quot;text-align: left ; font-size: 17px&quot;&gt;&lt;font style=&quot;font-size: 17px&quot; color=&quot;#99ffff&quot;&gt;}&lt;/font&gt;&lt;/div&gt;&lt;/blockquote&gt;&lt;blockquote style=&quot;margin: 0 0 0 40px ; border: none ; padding: 0px&quot;&gt;&lt;div style=&quot;text-align: left ; font-size: 17px&quot;&gt;&lt;font style=&quot;font-size: 17px&quot; color=&quot;#99ffff&quot;&gt;finally{&lt;/font&gt;&lt;/div&gt;&lt;/blockquote&gt;&lt;/blockquote&gt;&lt;blockquote style=&quot;margin: 0 0 0 40px ; border: none ; padding: 0px&quot;&gt;&lt;blockquote style=&quot;margin: 0 0 0 40px ; border: none ; padding: 0px&quot;&gt;&lt;blockquote style=&quot;margin: 0 0 0 40px ; border: none ; padding: 0px&quot;&gt;&lt;div style=&quot;text-align: left ; font-size: 17px&quot;&gt;&lt;font style=&quot;font-size: 17px&quot; color=&quot;#99ffff&quot;&gt;/** 后置通知的方法总是会被执行，因为是finally包裹的 */&lt;/font&gt;&lt;/div&gt;&lt;/blockquote&gt;&lt;/blockquote&gt;&lt;blockquote style=&quot;margin: 0 0 0 40px ; border: none ; padding: 0px&quot;&gt;&lt;blockquote style=&quot;margin: 0 0 0 40px ; border: none ; padding: 0px&quot;&gt;&lt;div style=&quot;text-align: left ; font-size: 17px&quot;&gt;&lt;font style=&quot;font-size: 17px&quot; color=&quot;#99ffff&quot;&gt;invokeAdviceMethod(getJoinPointMatch(),null,null);&lt;/font&gt;&lt;/div&gt;&lt;/blockquote&gt;&lt;/blockquote&gt;&lt;/blockquote&gt;&lt;blockquote style=&quot;margin: 0 0 0 40px ; border: none ; padding: 0px&quot;&gt;&lt;blockquote style=&quot;margin: 0 0 0 40px ; border: none ; padding: 0px&quot;&gt;&lt;div style=&quot;text-align: left ; font-size: 17px&quot;&gt;&lt;font style=&quot;font-size: 17px&quot; color=&quot;#99ffff&quot;&gt;}&lt;/font&gt;&lt;/div&gt;&lt;/blockquote&gt;&lt;blockquote style=&quot;margin: 0 0 0 40px ; border: none ; padding: 0px&quot;&gt;&lt;div style=&quot;text-align: left ; font-size: 17px&quot;&gt;&lt;font style=&quot;font-size: 17px&quot; color=&quot;#ff9999&quot;&gt;/** 返回通知方法 */&lt;/font&gt;&lt;/div&gt;&lt;/blockquote&gt;&lt;blockquote style=&quot;margin: 0 0 0 40px ; border: none ; padding: 0px&quot;&gt;&lt;div style=&quot;text-align: left ; font-size: 17px&quot;&gt;&lt;font style=&quot;font-size: 17px&quot; color=&quot;#ff9999&quot;&gt;this.advice.afterReturning(retVal,mi.getMethod(),mi.getArguments(),mi.getThis());&lt;/font&gt;&lt;/div&gt;&lt;/blockquote&gt;&lt;blockquote style=&quot;margin: 0 0 0 40px ; border: none ; padding: 0px&quot;&gt;&lt;div style=&quot;text-align: left ; font-size: 17px&quot;&gt;&lt;font style=&quot;font-size: 17px&quot; color=&quot;#ff9999&quot;&gt;return retVal;&lt;/font&gt;&lt;/div&gt;&lt;/blockquote&gt;&lt;div style=&quot;text-align: left ; font-size: 17px&quot;&gt;&lt;font style=&quot;font-size: 17px&quot; color=&quot;#cda2be&quot;&gt;}&lt;/font&gt;&lt;/div&gt;&lt;div style=&quot;text-align: left ; font-size: 17px&quot;&gt;&lt;font style=&quot;font-size: 17px&quot; color=&quot;#cda2be&quot;&gt;catch(Throwable ex) {&lt;/font&gt;&lt;/div&gt;&lt;/blockquote&gt;&lt;blockquote style=&quot;margin: 0 0 0 40px ; border: none ; padding: 0px&quot;&gt;&lt;blockquote style=&quot;margin: 0 0 0 40px ; border: none ; padding: 0px&quot;&gt;&lt;div style=&quot;text-align: left ; font-size: 17px&quot;&gt;&lt;font style=&quot;font-size: 17px&quot; color=&quot;#cda2be&quot;&gt;/** 抛出异常 */&lt;/font&gt;&lt;/div&gt;&lt;/blockquote&gt;&lt;blockquote style=&quot;margin: 0 0 0 40px ; border: none ; padding: 0px&quot;&gt;&lt;div style=&quot;text-align: left ; font-size: 17px&quot;&gt;&lt;font style=&quot;font-size: 17px&quot; color=&quot;#cda2be&quot;&gt;if(shouldInvokeOnThrowing(ex)) {&lt;/font&gt;&lt;/div&gt;&lt;/blockquote&gt;&lt;/blockquote&gt;&lt;blockquote style=&quot;margin: 0 0 0 40px ; border: none ; padding: 0px&quot;&gt;&lt;blockquote style=&quot;margin: 0 0 0 40px ; border: none ; padding: 0px&quot;&gt;&lt;blockquote style=&quot;margin: 0 0 0 40px ; border: none ; padding: 0px&quot;&gt;&lt;div style=&quot;text-align: left ; font-size: 17px&quot;&gt;&lt;font style=&quot;font-size: 17px&quot; color=&quot;#cda2be&quot;&gt;/** 执行异常通知 */&lt;/font&gt;&lt;/div&gt;&lt;/blockquote&gt;&lt;/blockquote&gt;&lt;blockquote style=&quot;margin: 0 0 0 40px ; border: none ; padding: 0px&quot;&gt;&lt;blockquote style=&quot;margin: 0 0 0 40px ; border: none ; padding: 0px&quot;&gt;&lt;div style=&quot;text-align: left ; font-size: 17px&quot;&gt;&lt;font style=&quot;font-size: 17px&quot; color=&quot;#cda2be&quot;&gt;invokeAdviceMethod(getJoinPointMatch(),null,ex);&lt;/font&gt;&lt;/div&gt;&lt;/blockquote&gt;&lt;/blockquote&gt;&lt;/blockquote&gt;&lt;blockquote style=&quot;margin: 0 0 0 40px ; border: none ; padding: 0px&quot;&gt;&lt;blockquote style=&quot;margin: 0 0 0 40px ; border: none ; padding: 0px&quot;&gt;&lt;div style=&quot;text-align: left ; font-size: 17px&quot;&gt;&lt;font style=&quot;font-size: 17px&quot; color=&quot;#cda2be&quot;&gt;}&lt;/font&gt;&lt;/div&gt;&lt;/blockquote&gt;&lt;blockquote style=&quot;margin: 0 0 0 40px ; border: none ; padding: 0px&quot;&gt;&lt;div style=&quot;text-align: left ; font-size: 17px&quot;&gt;&lt;font style=&quot;font-size: 17px&quot; color=&quot;#cda2be&quot;&gt;throw ex;&lt;/font&gt;&lt;/div&gt;&lt;/blockquote&gt;&lt;/blockquote&gt;&lt;blockquote style=&quot;margin: 0 0 0 40px ; border: none ; padding: 0px&quot;&gt;&lt;div style=&quot;text-align: left ; font-size: 17px&quot;&gt;&lt;font style=&quot;font-size: 17px&quot; color=&quot;#cda2be&quot;&gt;}&lt;/font&gt;&lt;/div&gt;&lt;/blockquote&gt;&lt;div style=&quot;text-align: left ; font-size: 17px&quot;&gt;&lt;font style=&quot;font-size: 17px&quot; color=&quot;#ffff00&quot;&gt;&lt;span&gt;	&lt;/span&gt;}&lt;/font&gt;&lt;/div&gt;&lt;div style=&quot;text-align: left ; font-size: 17px&quot;&gt;&lt;font style=&quot;font-size: 17px&quot; color=&quot;#ffff00&quot;&gt;&lt;span&gt;	&lt;/span&gt;finally {&lt;/font&gt;&lt;/div&gt;&lt;blockquote style=&quot;margin: 0 0 0 40px ; border: none ; padding: 0px&quot;&gt;&lt;div style=&quot;text-align: left ; font-size: 17px&quot;&gt;&lt;font style=&quot;font-size: 17px&quot; color=&quot;#ffff00&quot;&gt;invocation.set(oldInvocation);&lt;/font&gt;&lt;/div&gt;&lt;/blockquote&gt;&lt;div style=&quot;text-align: left ; font-size: 17px&quot;&gt;&lt;font style=&quot;font-size: 17px&quot; color=&quot;#ffff00&quot;&gt;&lt;span&gt;	&lt;/span&gt;}&lt;/font&gt;&lt;/div&gt;&lt;div style=&quot;font-size: 17px&quot;&gt;&lt;span&gt;&lt;font style=&quot;font-size: 17px&quot;&gt;	&lt;/font&gt;&lt;/span&gt;&lt;/div&gt;&lt;div style=&quot;font-size: 17px&quot;&gt;&lt;span&gt;&lt;font style=&quot;font-size: 17px&quot;&gt;	&lt;/font&gt;&lt;/span&gt;&lt;/div&gt;&lt;div style=&quot;text-align: left ; font-size: 17px&quot;&gt;&lt;br&gt;&lt;/div&gt;" style="rounded=0;whiteSpace=wrap;html=1;fontSize=12;fontColor=#000000;strokeColor=#000000;strokeWidth=2;verticalAlign=middle;fillColor=#1A1A1A;" parent="bF5vYxYyOjAi4rwTEDQr-1" vertex="1">
          <mxGeometry x="2020" y="1770" width="740" height="680" as="geometry" />
        </mxCell>
        <mxCell id="1n37X5XZOYJppBrc-e5R-1" style="edgeStyle=orthogonalEdgeStyle;rounded=0;orthogonalLoop=1;jettySize=auto;html=1;exitX=0;exitY=0.5;exitDx=0;exitDy=0;entryX=0;entryY=0.5;entryDx=0;entryDy=0;fontSize=12;fontColor=#000000;startArrow=oval;startFill=0;endArrow=oval;endFill=0;strokeWidth=2;dashed=1;strokeColor=#CCCC00;" parent="bF5vYxYyOjAi4rwTEDQr-1" source="1n37X5XZOYJppBrc-e5R-3" target="1n37X5XZOYJppBrc-e5R-4" edge="1">
          <mxGeometry relative="1" as="geometry">
            <Array as="points">
              <mxPoint x="1870" y="1840" />
              <mxPoint x="1870" y="2361" />
            </Array>
          </mxGeometry>
        </mxCell>
        <mxCell id="1n37X5XZOYJppBrc-e5R-2" value="1" style="edgeLabel;html=1;align=center;verticalAlign=middle;resizable=0;points=[];fontSize=20;fontColor=#000000;fontStyle=1" parent="1n37X5XZOYJppBrc-e5R-1" vertex="1" connectable="0">
          <mxGeometry x="-0.0545" y="-2" relative="1" as="geometry">
            <mxPoint as="offset" />
          </mxGeometry>
        </mxCell>
        <mxCell id="1n37X5XZOYJppBrc-e5R-3" value="" style="rounded=0;whiteSpace=wrap;html=1;fontSize=12;fontColor=#000000;strokeWidth=2;verticalAlign=middle;fillColor=#FFFF00;opacity=20;strokeColor=none;" parent="bF5vYxYyOjAi4rwTEDQr-1" vertex="1">
          <mxGeometry x="2020" y="1799" width="740" height="81" as="geometry" />
        </mxCell>
        <mxCell id="1n37X5XZOYJppBrc-e5R-4" value="" style="rounded=0;whiteSpace=wrap;html=1;fontSize=12;fontColor=#000000;strokeWidth=2;verticalAlign=middle;fillColor=#FFFF00;opacity=20;strokeColor=none;" parent="bF5vYxYyOjAi4rwTEDQr-1" vertex="1">
          <mxGeometry x="2020" y="2320" width="740" height="81" as="geometry" />
        </mxCell>
        <mxCell id="1n37X5XZOYJppBrc-e5R-5" style="edgeStyle=orthogonalEdgeStyle;rounded=0;orthogonalLoop=1;jettySize=auto;html=1;exitX=0;exitY=0.5;exitDx=0;exitDy=0;entryX=0;entryY=0.5;entryDx=0;entryDy=0;dashed=1;fontSize=20;fontColor=#000000;startArrow=oval;startFill=0;endArrow=oval;endFill=0;strokeWidth=2;strokeColor=#CDA2BE;" parent="bF5vYxYyOjAi4rwTEDQr-1" source="1n37X5XZOYJppBrc-e5R-7" target="1n37X5XZOYJppBrc-e5R-8" edge="1">
          <mxGeometry relative="1" as="geometry">
            <Array as="points">
              <mxPoint x="1910" y="1890" />
              <mxPoint x="1910" y="2230" />
            </Array>
          </mxGeometry>
        </mxCell>
        <mxCell id="1n37X5XZOYJppBrc-e5R-6" value="2" style="edgeLabel;html=1;align=center;verticalAlign=middle;resizable=0;points=[];fontSize=20;fontColor=#000000;fontStyle=1" parent="1n37X5XZOYJppBrc-e5R-5" vertex="1" connectable="0">
          <mxGeometry x="-0.0505" relative="1" as="geometry">
            <mxPoint as="offset" />
          </mxGeometry>
        </mxCell>
        <mxCell id="1n37X5XZOYJppBrc-e5R-7" value="" style="rounded=0;whiteSpace=wrap;html=1;fontSize=12;fontColor=#000000;strokeWidth=2;verticalAlign=middle;opacity=20;strokeColor=none;fillColor=#CDA2BE;" parent="bF5vYxYyOjAi4rwTEDQr-1" vertex="1">
          <mxGeometry x="2020" y="1880" width="740" height="20" as="geometry" />
        </mxCell>
        <mxCell id="mxfyFnL8VsbHjbZOhPaL-12" style="edgeStyle=orthogonalEdgeStyle;rounded=0;orthogonalLoop=1;jettySize=auto;html=1;exitX=1;exitY=0.75;exitDx=0;exitDy=0;dashed=1;endArrow=none;endFill=0;entryX=0;entryY=0.5;entryDx=0;entryDy=0;" edge="1" parent="bF5vYxYyOjAi4rwTEDQr-1" source="1n37X5XZOYJppBrc-e5R-8" target="mxfyFnL8VsbHjbZOhPaL-13">
          <mxGeometry relative="1" as="geometry">
            <mxPoint x="2940" y="2275" as="targetPoint" />
          </mxGeometry>
        </mxCell>
        <mxCell id="1n37X5XZOYJppBrc-e5R-8" value="" style="rounded=0;whiteSpace=wrap;html=1;fontSize=12;fontColor=#000000;strokeWidth=2;verticalAlign=middle;opacity=20;strokeColor=none;fillColor=#CDA2BE;" parent="bF5vYxYyOjAi4rwTEDQr-1" vertex="1">
          <mxGeometry x="2020" y="2140" width="740" height="180" as="geometry" />
        </mxCell>
        <mxCell id="1n37X5XZOYJppBrc-e5R-9" style="edgeStyle=orthogonalEdgeStyle;rounded=0;orthogonalLoop=1;jettySize=auto;html=1;exitX=0;exitY=0.25;exitDx=0;exitDy=0;entryX=0;entryY=0.5;entryDx=0;entryDy=0;dashed=1;fontSize=20;fontColor=#000000;startArrow=oval;startFill=0;endArrow=oval;endFill=0;strokeWidth=2;strokeColor=#FF9999;" parent="bF5vYxYyOjAi4rwTEDQr-1" source="1n37X5XZOYJppBrc-e5R-11" target="1n37X5XZOYJppBrc-e5R-12" edge="1">
          <mxGeometry relative="1" as="geometry">
            <Array as="points">
              <mxPoint x="1970" y="1905" />
              <mxPoint x="1970" y="2110" />
            </Array>
          </mxGeometry>
        </mxCell>
        <mxCell id="1n37X5XZOYJppBrc-e5R-10" value="3" style="edgeLabel;html=1;align=center;verticalAlign=middle;resizable=0;points=[];fontSize=20;fontColor=#000000;fontStyle=1" parent="1n37X5XZOYJppBrc-e5R-9" vertex="1" connectable="0">
          <mxGeometry x="-0.1035" y="-3" relative="1" as="geometry">
            <mxPoint as="offset" />
          </mxGeometry>
        </mxCell>
        <mxCell id="1n37X5XZOYJppBrc-e5R-11" value="" style="rounded=0;whiteSpace=wrap;html=1;fontSize=12;fontColor=#000000;strokeWidth=2;verticalAlign=middle;opacity=20;strokeColor=none;fillColor=#FF9999;" parent="bF5vYxYyOjAi4rwTEDQr-1" vertex="1">
          <mxGeometry x="2020" y="1900" width="740" height="20" as="geometry" />
        </mxCell>
        <mxCell id="mxfyFnL8VsbHjbZOhPaL-10" style="edgeStyle=orthogonalEdgeStyle;rounded=0;orthogonalLoop=1;jettySize=auto;html=1;exitX=1;exitY=0.5;exitDx=0;exitDy=0;entryX=1;entryY=0.5;entryDx=0;entryDy=0;endArrow=none;endFill=0;dashed=1;" edge="1" parent="bF5vYxYyOjAi4rwTEDQr-1" source="1n37X5XZOYJppBrc-e5R-12" target="1n37X5XZOYJppBrc-e5R-8">
          <mxGeometry relative="1" as="geometry">
            <Array as="points">
              <mxPoint x="2790" y="2110" />
              <mxPoint x="2790" y="2230" />
            </Array>
          </mxGeometry>
        </mxCell>
        <mxCell id="mxfyFnL8VsbHjbZOhPaL-11" value="二选一" style="edgeLabel;html=1;align=center;verticalAlign=middle;resizable=0;points=[];" vertex="1" connectable="0" parent="mxfyFnL8VsbHjbZOhPaL-10">
          <mxGeometry x="-0.1242" y="-2" relative="1" as="geometry">
            <mxPoint as="offset" />
          </mxGeometry>
        </mxCell>
        <mxCell id="1n37X5XZOYJppBrc-e5R-12" value="" style="rounded=0;whiteSpace=wrap;html=1;fontSize=12;fontColor=#000000;strokeWidth=2;verticalAlign=middle;opacity=20;strokeColor=none;fillColor=#FF9999;" parent="bF5vYxYyOjAi4rwTEDQr-1" vertex="1">
          <mxGeometry x="2020" y="2080" width="740" height="60" as="geometry" />
        </mxCell>
        <mxCell id="1n37X5XZOYJppBrc-e5R-13" value="&lt;pre style=&quot;background-color: #2b2b2b ; color: #a9b7c6 ; font-family: &amp;quot;jetbrains mono&amp;quot; ; font-size: 9.8pt&quot;&gt;&lt;br&gt;&lt;span style=&quot;color: #bbb529&quot;&gt;@Override&lt;br&gt;&lt;/span&gt;&lt;span style=&quot;color: #cc7832&quot;&gt;public &lt;/span&gt;Object &lt;span style=&quot;color: #ffc66d&quot;&gt;invoke&lt;/span&gt;(MethodInvocation mi) &lt;span style=&quot;color: #cc7832&quot;&gt;throws &lt;/span&gt;Throwable {&lt;br&gt;   &lt;span style=&quot;color: #cc7832&quot;&gt;try &lt;/span&gt;{&lt;br&gt;      &lt;span style=&quot;color: #629755 ; font-style: italic&quot;&gt;/** &lt;/span&gt;&lt;span style=&quot;color: #629755 ; font-style: italic ; font-family: &amp;quot;courier new&amp;quot;&quot;&gt;本拦截器是后置通知拦截器对象，执行下一个通知 &lt;/span&gt;&lt;span style=&quot;color: #629755 ; font-style: italic&quot;&gt;*/&lt;br&gt;&lt;/span&gt;&lt;span style=&quot;color: #629755 ; font-style: italic&quot;&gt;      &lt;/span&gt;&lt;span style=&quot;color: #cc7832&quot;&gt;return &lt;/span&gt;mi.proceed()&lt;span style=&quot;color: #cc7832&quot;&gt;;&lt;br&gt;&lt;/span&gt;&lt;span style=&quot;color: #cc7832&quot;&gt;   &lt;/span&gt;}&lt;br&gt;   &lt;span style=&quot;color: #cc7832&quot;&gt;finally &lt;/span&gt;{&lt;br&gt;      &lt;span style=&quot;color: #629755 ; font-style: italic&quot;&gt;/** &lt;/span&gt;&lt;span style=&quot;color: #629755 ; font-style: italic ; font-family: &amp;quot;courier new&amp;quot;&quot;&gt;后置通知的方法总是会被执行，因为是用&lt;/span&gt;&lt;span style=&quot;color: #629755 ; font-style: italic&quot;&gt;finally&lt;/span&gt;&lt;span style=&quot;color: #629755 ; font-style: italic ; font-family: &amp;quot;courier new&amp;quot;&quot;&gt;包裹着 &lt;/span&gt;&lt;span style=&quot;color: #629755 ; font-style: italic&quot;&gt;*/&lt;br&gt;&lt;/span&gt;&lt;span style=&quot;color: #629755 ; font-style: italic&quot;&gt;      &lt;/span&gt;invokeAdviceMethod(getJoinPointMatch()&lt;span style=&quot;color: #cc7832&quot;&gt;, null, null&lt;/span&gt;)&lt;span style=&quot;color: #cc7832&quot;&gt;;&lt;br&gt;&lt;/span&gt;&lt;span style=&quot;color: #cc7832&quot;&gt;   &lt;/span&gt;}&lt;br&gt;}&lt;br&gt;&lt;br&gt;&lt;/pre&gt;" style="text;whiteSpace=wrap;html=1;fontSize=20;fontColor=#CC0000;" parent="bF5vYxYyOjAi4rwTEDQr-1" vertex="1">
          <mxGeometry x="950" y="2300" width="420" height="230" as="geometry" />
        </mxCell>
        <mxCell id="1n37X5XZOYJppBrc-e5R-14" value="&lt;pre style=&quot;background-color: #2b2b2b ; color: #a9b7c6 ; font-family: &amp;quot;jetbrains mono&amp;quot; ; font-size: 9.8pt&quot;&gt;&lt;br&gt;&lt;span style=&quot;color: #bbb529&quot;&gt;@Override&lt;br&gt;&lt;/span&gt;&lt;span style=&quot;color: #cc7832&quot;&gt;public &lt;/span&gt;Object &lt;span style=&quot;color: #ffc66d&quot;&gt;invoke&lt;/span&gt;(MethodInvocation mi) &lt;span style=&quot;color: #cc7832&quot;&gt;throws &lt;/span&gt;Throwable {&lt;br&gt;   &lt;span style=&quot;color: #629755 ; font-style: italic&quot;&gt;/** &lt;/span&gt;&lt;span style=&quot;color: #629755 ; font-style: italic ; font-family: &amp;quot;courier new&amp;quot;&quot;&gt;本拦截器返回通知拦截器，所以抛出异常就不会执行返回通知的方法，执行下一个拦截器（后置拦截器） &lt;/span&gt;&lt;span style=&quot;color: #629755 ; font-style: italic&quot;&gt;*/&lt;br&gt;&lt;/span&gt;&lt;span style=&quot;color: #629755 ; font-style: italic&quot;&gt;   &lt;/span&gt;Object retVal = mi.proceed()&lt;span style=&quot;color: #cc7832&quot;&gt;;&lt;br&gt;&lt;/span&gt;&lt;span style=&quot;color: #cc7832&quot;&gt;   &lt;/span&gt;&lt;span style=&quot;color: #629755 ; font-style: italic&quot;&gt;/** &lt;/span&gt;&lt;span style=&quot;color: #629755 ; font-style: italic ; font-family: &amp;quot;courier new&amp;quot;&quot;&gt;返回通知方法 &lt;/span&gt;&lt;span style=&quot;color: #629755 ; font-style: italic&quot;&gt;*/&lt;br&gt;&lt;/span&gt;&lt;span style=&quot;color: #629755 ; font-style: italic&quot;&gt;   &lt;/span&gt;&lt;span style=&quot;color: #cc7832&quot;&gt;this&lt;/span&gt;.&lt;span style=&quot;color: #9876aa&quot;&gt;advice&lt;/span&gt;.afterReturning(retVal&lt;span style=&quot;color: #cc7832&quot;&gt;, &lt;/span&gt;mi.getMethod()&lt;span style=&quot;color: #cc7832&quot;&gt;, &lt;/span&gt;mi.getArguments()&lt;span style=&quot;color: #cc7832&quot;&gt;, &lt;/span&gt;mi.getThis())&lt;span style=&quot;color: #cc7832&quot;&gt;;&lt;br&gt;&lt;/span&gt;&lt;span style=&quot;color: #cc7832&quot;&gt;   return &lt;/span&gt;retVal&lt;span style=&quot;color: #cc7832&quot;&gt;;&lt;br&gt;&lt;/span&gt;}&lt;br&gt;&lt;br&gt;&lt;/pre&gt;" style="text;whiteSpace=wrap;html=1;fontSize=20;fontColor=#CC0000;" parent="bF5vYxYyOjAi4rwTEDQr-1" vertex="1">
          <mxGeometry x="950" y="2134" width="660" height="182" as="geometry" />
        </mxCell>
        <mxCell id="1n37X5XZOYJppBrc-e5R-15" value="&lt;pre style=&quot;background-color: #2b2b2b ; color: #a9b7c6 ; font-family: &amp;quot;jetbrains mono&amp;quot; ; font-size: 9.8pt&quot;&gt;&lt;span style=&quot;color: #bbb529&quot;&gt;@Override&lt;br&gt;&lt;/span&gt;&lt;span style=&quot;color: #cc7832&quot;&gt;public &lt;/span&gt;Object &lt;span style=&quot;color: #ffc66d&quot;&gt;invoke&lt;/span&gt;(MethodInvocation mi) &lt;span style=&quot;color: #cc7832&quot;&gt;throws &lt;/span&gt;Throwable {&lt;br&gt;   MethodInvocation oldInvocation = &lt;span style=&quot;color: #9876aa ; font-style: italic&quot;&gt;invocation&lt;/span&gt;.get()&lt;span style=&quot;color: #cc7832&quot;&gt;;&lt;br&gt;&lt;/span&gt;&lt;span style=&quot;color: #cc7832&quot;&gt;   &lt;/span&gt;&lt;span style=&quot;color: #629755 ; font-style: italic&quot;&gt;/** &lt;/span&gt;&lt;span style=&quot;color: #629755 ; font-style: italic ; font-family: &amp;quot;courier new&amp;quot;&quot;&gt;记录当前正在执行的拦截器 &lt;/span&gt;&lt;span style=&quot;color: #629755 ; font-style: italic&quot;&gt;*/&lt;br&gt;&lt;/span&gt;&lt;span style=&quot;color: #629755 ; font-style: italic&quot;&gt;   &lt;/span&gt;&lt;span style=&quot;color: #9876aa ; font-style: italic&quot;&gt;invocation&lt;/span&gt;.set(mi)&lt;span style=&quot;color: #cc7832&quot;&gt;;&lt;br&gt;&lt;/span&gt;&lt;span style=&quot;color: #cc7832&quot;&gt;   try &lt;/span&gt;{&lt;br&gt;      &lt;span style=&quot;color: #cc7832&quot;&gt;return &lt;/span&gt;mi.proceed()&lt;span style=&quot;color: #cc7832&quot;&gt;;&lt;br&gt;&lt;/span&gt;&lt;span style=&quot;color: #cc7832&quot;&gt;   &lt;/span&gt;}&lt;br&gt;   &lt;span style=&quot;color: #cc7832&quot;&gt;finally &lt;/span&gt;{&lt;br&gt;      &lt;span style=&quot;color: #9876aa ; font-style: italic&quot;&gt;invocation&lt;/span&gt;.set(oldInvocation)&lt;span style=&quot;color: #cc7832&quot;&gt;;&lt;br&gt;&lt;/span&gt;&lt;span style=&quot;color: #cc7832&quot;&gt;   &lt;/span&gt;}&lt;br&gt;}&lt;br&gt;&lt;br&gt;&lt;/pre&gt;" style="text;whiteSpace=wrap;html=1;fontSize=20;fontColor=#000000;" parent="bF5vYxYyOjAi4rwTEDQr-1" vertex="1">
          <mxGeometry x="950" y="1620" width="420" height="220" as="geometry" />
        </mxCell>
        <mxCell id="1n37X5XZOYJppBrc-e5R-16" value="&lt;pre style=&quot;background-color: #2b2b2b ; color: #a9b7c6 ; font-family: &amp;quot;jetbrains mono&amp;quot; ; font-size: 9.8pt&quot;&gt;&lt;br&gt;&lt;span style=&quot;color: #bbb529&quot;&gt;@Override&lt;br&gt;&lt;/span&gt;&lt;span style=&quot;color: #cc7832&quot;&gt;public &lt;/span&gt;Object &lt;span style=&quot;color: #ffc66d&quot;&gt;invoke&lt;/span&gt;(MethodInvocation mi) &lt;span style=&quot;color: #cc7832&quot;&gt;throws &lt;/span&gt;Throwable {&lt;br&gt;   &lt;span style=&quot;color: #cc7832&quot;&gt;try &lt;/span&gt;{&lt;br&gt;      &lt;span style=&quot;color: #629755 ; font-style: italic&quot;&gt;/** &lt;/span&gt;&lt;span style=&quot;color: #629755 ; font-style: italic ; font-family: &amp;quot;courier new&amp;quot;&quot;&gt;执行写一个拦截器 &lt;/span&gt;&lt;span style=&quot;color: #629755 ; font-style: italic&quot;&gt;*/&lt;br&gt;&lt;/span&gt;&lt;span style=&quot;color: #629755 ; font-style: italic&quot;&gt;      &lt;/span&gt;&lt;span style=&quot;color: #cc7832&quot;&gt;return &lt;/span&gt;mi.proceed()&lt;span style=&quot;color: #cc7832&quot;&gt;;&lt;br&gt;&lt;/span&gt;&lt;span style=&quot;color: #cc7832&quot;&gt;   &lt;/span&gt;}&lt;br&gt;   &lt;span style=&quot;color: #cc7832&quot;&gt;catch &lt;/span&gt;(Throwable ex) {&lt;br&gt;      &lt;span style=&quot;color: #629755 ; font-style: italic&quot;&gt;/** &lt;/span&gt;&lt;span style=&quot;color: #629755 ; font-style: italic ; font-family: &amp;quot;courier new&amp;quot;&quot;&gt;抛出异常 &lt;/span&gt;&lt;span style=&quot;color: #629755 ; font-style: italic&quot;&gt;*/&lt;br&gt;&lt;/span&gt;&lt;span style=&quot;color: #629755 ; font-style: italic&quot;&gt;      &lt;/span&gt;&lt;span style=&quot;color: #cc7832&quot;&gt;if &lt;/span&gt;(shouldInvokeOnThrowing(ex)) {&lt;br&gt;         &lt;span style=&quot;color: #629755 ; font-style: italic&quot;&gt;/** &lt;/span&gt;&lt;span style=&quot;color: #629755 ; font-style: italic ; font-family: &amp;quot;courier new&amp;quot;&quot;&gt;执行异常通知 &lt;/span&gt;&lt;span style=&quot;color: #629755 ; font-style: italic&quot;&gt;*/&lt;br&gt;&lt;/span&gt;&lt;span style=&quot;color: #629755 ; font-style: italic&quot;&gt;         &lt;/span&gt;invokeAdviceMethod(getJoinPointMatch()&lt;span style=&quot;color: #cc7832&quot;&gt;, null, &lt;/span&gt;ex)&lt;span style=&quot;color: #cc7832&quot;&gt;;&lt;br&gt;&lt;/span&gt;&lt;span style=&quot;color: #cc7832&quot;&gt;      &lt;/span&gt;}&lt;br&gt;      &lt;span style=&quot;color: #cc7832&quot;&gt;throw &lt;/span&gt;ex&lt;span style=&quot;color: #cc7832&quot;&gt;;&lt;br&gt;&lt;/span&gt;&lt;span style=&quot;color: #cc7832&quot;&gt;   &lt;/span&gt;}&lt;br&gt;}&lt;br&gt;&lt;br&gt;&lt;/pre&gt;" style="text;whiteSpace=wrap;html=1;fontSize=20;fontColor=#000000;" parent="bF5vYxYyOjAi4rwTEDQr-1" vertex="1">
          <mxGeometry x="950" y="1850" width="420" height="290" as="geometry" />
        </mxCell>
        <mxCell id="1n37X5XZOYJppBrc-e5R-17" value="" style="edgeStyle=orthogonalEdgeStyle;curved=1;rounded=0;orthogonalLoop=1;jettySize=auto;html=1;fontSize=20;fontColor=#0000FF;startArrow=none;startFill=0;endArrow=classic;endFill=1;strokeWidth=2;" parent="bF5vYxYyOjAi4rwTEDQr-1" source="1n37X5XZOYJppBrc-e5R-19" target="1n37X5XZOYJppBrc-e5R-55" edge="1">
          <mxGeometry relative="1" as="geometry" />
        </mxCell>
        <mxCell id="1n37X5XZOYJppBrc-e5R-18" value="end" style="edgeLabel;html=1;align=center;verticalAlign=middle;resizable=0;points=[];fontSize=20;" parent="1n37X5XZOYJppBrc-e5R-17" vertex="1" connectable="0">
          <mxGeometry x="-0.172" y="2" relative="1" as="geometry">
            <mxPoint as="offset" />
          </mxGeometry>
        </mxCell>
        <mxCell id="1n37X5XZOYJppBrc-e5R-19" value="" style="rounded=0;whiteSpace=wrap;html=1;fontSize=20;fontColor=#000000;strokeWidth=2;fillColor=#FF66B3;verticalAlign=middle;opacity=40;strokeColor=none;" parent="bF5vYxYyOjAi4rwTEDQr-1" vertex="1">
          <mxGeometry x="950" y="1733" width="400" height="20" as="geometry" />
        </mxCell>
        <mxCell id="1n37X5XZOYJppBrc-e5R-20" value="" style="rounded=0;whiteSpace=wrap;html=1;fontSize=20;fontColor=#000000;strokeWidth=2;fillColor=#FF66B3;verticalAlign=middle;opacity=40;strokeColor=none;" parent="bF5vYxYyOjAi4rwTEDQr-1" vertex="1">
          <mxGeometry x="950" y="1950" width="400" height="20" as="geometry" />
        </mxCell>
        <mxCell id="1n37X5XZOYJppBrc-e5R-21" value="&lt;font color=&quot;#000000&quot; style=&quot;font-size: 15px&quot;&gt;内置&lt;/font&gt;" style="rounded=0;whiteSpace=wrap;html=1;fontSize=20;fontColor=#CC0000;strokeWidth=2;verticalAlign=middle;fillColor=#FFFFFF;" parent="bF5vYxYyOjAi4rwTEDQr-1" vertex="1">
          <mxGeometry x="1295" y="1640" width="45" height="20" as="geometry" />
        </mxCell>
        <mxCell id="1n37X5XZOYJppBrc-e5R-22" value="&lt;font color=&quot;#000000&quot; style=&quot;font-size: 15px&quot;&gt;异常&lt;/font&gt;" style="rounded=0;whiteSpace=wrap;html=1;fontSize=20;fontColor=#CC0000;strokeWidth=2;verticalAlign=middle;fillColor=#FFFFFF;" parent="bF5vYxYyOjAi4rwTEDQr-1" vertex="1">
          <mxGeometry x="1305" y="1870" width="45" height="20" as="geometry" />
        </mxCell>
        <mxCell id="1n37X5XZOYJppBrc-e5R-23" style="edgeStyle=orthogonalEdgeStyle;curved=1;rounded=0;orthogonalLoop=1;jettySize=auto;html=1;exitX=0;exitY=0.5;exitDx=0;exitDy=0;fontSize=20;fontColor=#CC0000;startArrow=none;startFill=0;endArrow=classic;endFill=1;strokeColor=#000000;strokeWidth=2;entryX=0;entryY=0.5;entryDx=0;entryDy=0;" parent="bF5vYxYyOjAi4rwTEDQr-1" source="1n37X5XZOYJppBrc-e5R-14" target="1n37X5XZOYJppBrc-e5R-32" edge="1">
          <mxGeometry relative="1" as="geometry">
            <mxPoint x="910" y="2340" as="targetPoint" />
            <Array as="points">
              <mxPoint x="870" y="2225" />
              <mxPoint x="870" y="2405" />
            </Array>
          </mxGeometry>
        </mxCell>
        <mxCell id="1n37X5XZOYJppBrc-e5R-24" value="3" style="edgeLabel;html=1;align=center;verticalAlign=middle;resizable=0;points=[];fontSize=20;fontColor=#CC0000;" parent="1n37X5XZOYJppBrc-e5R-23" vertex="1" connectable="0">
          <mxGeometry x="-0.1804" relative="1" as="geometry">
            <mxPoint as="offset" />
          </mxGeometry>
        </mxCell>
        <mxCell id="1n37X5XZOYJppBrc-e5R-25" value="" style="rounded=0;whiteSpace=wrap;html=1;fontSize=20;fontColor=#000000;strokeWidth=2;fillColor=#FF66B3;verticalAlign=middle;opacity=40;strokeColor=none;" parent="bF5vYxYyOjAi4rwTEDQr-1" vertex="1">
          <mxGeometry x="950" y="2215" width="400" height="20" as="geometry" />
        </mxCell>
        <mxCell id="1n37X5XZOYJppBrc-e5R-26" value="&lt;font color=&quot;#000000&quot; style=&quot;font-size: 15px&quot;&gt;返回&lt;/font&gt;" style="rounded=0;whiteSpace=wrap;html=1;fontSize=20;fontColor=#CC0000;strokeWidth=2;verticalAlign=middle;fillColor=#FFFFFF;" parent="bF5vYxYyOjAi4rwTEDQr-1" vertex="1">
          <mxGeometry x="1550" y="2160" width="45" height="20" as="geometry" />
        </mxCell>
        <mxCell id="1n37X5XZOYJppBrc-e5R-27" value="&lt;font color=&quot;#000000&quot; style=&quot;font-size: 15px&quot;&gt;后置&lt;/font&gt;" style="rounded=0;whiteSpace=wrap;html=1;fontSize=20;fontColor=#CC0000;strokeWidth=2;verticalAlign=middle;fillColor=#FFFFFF;" parent="bF5vYxYyOjAi4rwTEDQr-1" vertex="1">
          <mxGeometry x="1297.5" y="2330" width="45" height="20" as="geometry" />
        </mxCell>
        <mxCell id="1n37X5XZOYJppBrc-e5R-28" style="edgeStyle=orthogonalEdgeStyle;curved=1;rounded=0;orthogonalLoop=1;jettySize=auto;html=1;exitX=0;exitY=0.5;exitDx=0;exitDy=0;entryX=0;entryY=0.5;entryDx=0;entryDy=0;fontSize=20;fontColor=#CC0000;startArrow=none;startFill=0;endArrow=classic;endFill=1;strokeColor=#000000;strokeWidth=2;" parent="bF5vYxYyOjAi4rwTEDQr-1" source="1n37X5XZOYJppBrc-e5R-32" target="1n37X5XZOYJppBrc-e5R-34" edge="1">
          <mxGeometry relative="1" as="geometry">
            <Array as="points">
              <mxPoint x="880" y="2404" />
              <mxPoint x="880" y="2641" />
            </Array>
          </mxGeometry>
        </mxCell>
        <mxCell id="1n37X5XZOYJppBrc-e5R-29" value="4" style="edgeLabel;html=1;align=center;verticalAlign=middle;resizable=0;points=[];fontSize=20;fontColor=#CC0000;" parent="1n37X5XZOYJppBrc-e5R-28" vertex="1" connectable="0">
          <mxGeometry x="-0.0479" relative="1" as="geometry">
            <mxPoint as="offset" />
          </mxGeometry>
        </mxCell>
        <mxCell id="1n37X5XZOYJppBrc-e5R-30" style="edgeStyle=orthogonalEdgeStyle;curved=1;rounded=0;orthogonalLoop=1;jettySize=auto;html=1;exitX=1;exitY=0.5;exitDx=0;exitDy=0;entryX=1;entryY=0.5;entryDx=0;entryDy=0;dashed=1;fontSize=20;fontColor=#007FFF;startArrow=none;startFill=0;endArrow=classic;endFill=1;strokeColor=#CC6600;strokeWidth=2;" parent="bF5vYxYyOjAi4rwTEDQr-1" source="1n37X5XZOYJppBrc-e5R-32" target="1n37X5XZOYJppBrc-e5R-25" edge="1">
          <mxGeometry relative="1" as="geometry">
            <Array as="points">
              <mxPoint x="1560" y="2405" />
              <mxPoint x="1560" y="2225" />
            </Array>
          </mxGeometry>
        </mxCell>
        <mxCell id="1n37X5XZOYJppBrc-e5R-31" value="7&lt;br&gt;异常" style="edgeLabel;html=1;align=center;verticalAlign=middle;resizable=0;points=[];fontSize=20;fontColor=#007FFF;" parent="1n37X5XZOYJppBrc-e5R-30" vertex="1" connectable="0">
          <mxGeometry x="-0.046" y="1" relative="1" as="geometry">
            <mxPoint as="offset" />
          </mxGeometry>
        </mxCell>
        <mxCell id="1n37X5XZOYJppBrc-e5R-32" value="" style="rounded=0;whiteSpace=wrap;html=1;fontSize=20;fontColor=#000000;strokeWidth=2;fillColor=#FF66B3;verticalAlign=middle;opacity=40;strokeColor=none;" parent="bF5vYxYyOjAi4rwTEDQr-1" vertex="1">
          <mxGeometry x="950" y="2395" width="400" height="20" as="geometry" />
        </mxCell>
        <mxCell id="1n37X5XZOYJppBrc-e5R-33" value="&lt;pre style=&quot;background-color: #2b2b2b ; color: #a9b7c6 ; font-family: &amp;quot;jetbrains mono&amp;quot; ; font-size: 9.8pt&quot;&gt;&lt;br&gt;&lt;span style=&quot;color: #bbb529&quot;&gt;@Override&lt;br&gt;&lt;/span&gt;&lt;span style=&quot;color: #cc7832&quot;&gt;public &lt;/span&gt;Object &lt;span style=&quot;color: #ffc66d&quot;&gt;invoke&lt;/span&gt;(MethodInvocation mi) &lt;span style=&quot;color: #cc7832&quot;&gt;throws &lt;/span&gt;Throwable {&lt;br&gt;   &lt;span style=&quot;color: #629755 ; font-style: italic&quot;&gt;/** &lt;/span&gt;&lt;span style=&quot;color: #629755 ; font-style: italic ; font-family: &amp;quot;courier new&amp;quot;&quot;&gt;本拦截器是前置通知拦截器对象，先执行前置通知的方法 &lt;/span&gt;&lt;span style=&quot;color: #629755 ; font-style: italic&quot;&gt;*/&lt;br&gt;&lt;/span&gt;&lt;span style=&quot;color: #629755 ; font-style: italic&quot;&gt;   &lt;/span&gt;&lt;span style=&quot;color: #cc7832&quot;&gt;this&lt;/span&gt;.&lt;span style=&quot;color: #9876aa&quot;&gt;advice&lt;/span&gt;.before(mi.getMethod()&lt;span style=&quot;color: #cc7832&quot;&gt;, &lt;/span&gt;mi.getArguments()&lt;span style=&quot;color: #cc7832&quot;&gt;, &lt;/span&gt;mi.getThis())&lt;span style=&quot;color: #cc7832&quot;&gt;;&lt;br&gt;&lt;/span&gt;&lt;span style=&quot;color: #cc7832&quot;&gt;   &lt;/span&gt;&lt;span style=&quot;color: #629755 ; font-style: italic&quot;&gt;/** &lt;/span&gt;&lt;span style=&quot;color: #629755 ; font-style: italic ; font-family: &amp;quot;courier new&amp;quot;&quot;&gt;执行下一个拦截器，但是该拦截器是最后一个了，那么他就会调用目标方法 &lt;/span&gt;&lt;span style=&quot;color: #629755 ; font-style: italic&quot;&gt;*/&lt;br&gt;&lt;/span&gt;&lt;span style=&quot;color: #629755 ; font-style: italic&quot;&gt;   &lt;/span&gt;&lt;span style=&quot;color: #cc7832&quot;&gt;return &lt;/span&gt;mi.proceed()&lt;span style=&quot;color: #cc7832&quot;&gt;;&lt;br&gt;&lt;/span&gt;}&lt;br&gt;&lt;br&gt;&lt;/pre&gt;" style="text;whiteSpace=wrap;html=1;fontSize=20;fontColor=#CC0000;" parent="bF5vYxYyOjAi4rwTEDQr-1" vertex="1">
          <mxGeometry x="945" y="2550" width="510" height="177" as="geometry" />
        </mxCell>
        <mxCell id="1n37X5XZOYJppBrc-e5R-34" value="" style="rounded=0;whiteSpace=wrap;html=1;fontSize=20;fontColor=#000000;strokeWidth=2;verticalAlign=middle;opacity=40;strokeColor=none;fillColor=#66B2FF;" parent="bF5vYxYyOjAi4rwTEDQr-1" vertex="1">
          <mxGeometry x="947" y="2630.5" width="450" height="20" as="geometry" />
        </mxCell>
        <mxCell id="1n37X5XZOYJppBrc-e5R-35" value="&lt;font color=&quot;#000000&quot; style=&quot;font-size: 15px&quot;&gt;前置&lt;/font&gt;" style="rounded=0;whiteSpace=wrap;html=1;fontSize=20;fontColor=#CC0000;strokeWidth=2;verticalAlign=middle;fillColor=#FFFFFF;" parent="bF5vYxYyOjAi4rwTEDQr-1" vertex="1">
          <mxGeometry x="1355" y="2570" width="45" height="20" as="geometry" />
        </mxCell>
        <mxCell id="1n37X5XZOYJppBrc-e5R-36" value="&lt;pre style=&quot;background-color: #2b2b2b ; color: #a9b7c6 ; font-family: &amp;quot;jetbrains mono&amp;quot; ; font-size: 9.8pt&quot;&gt;&lt;span style=&quot;color: #808080&quot;&gt;// We start with an index of -1 and increment early.&lt;br&gt;&lt;/span&gt;&lt;span style=&quot;color: #629755 ; font-style: italic&quot;&gt;/** &lt;/span&gt;&lt;span style=&quot;color: #629755 ; font-style: italic ; font-family: &amp;quot;courier new&amp;quot;&quot;&gt;从&lt;/span&gt;&lt;span style=&quot;color: #629755 ; font-style: italic&quot;&gt;-1&lt;/span&gt;&lt;span style=&quot;color: #629755 ; font-style: italic ; font-family: &amp;quot;courier new&amp;quot;&quot;&gt;开始，结束条件执行目标方法是下标&lt;/span&gt;&lt;span style=&quot;color: #629755 ; font-style: italic&quot;&gt;=&lt;/span&gt;&lt;span style=&quot;color: #629755 ; font-style: italic ; font-family: &amp;quot;courier new&amp;quot;&quot;&gt;拦截器的长度 &lt;/span&gt;&lt;span style=&quot;color: #629755 ; font-style: italic&quot;&gt;- 1&lt;/span&gt;&lt;span style=&quot;color: #629755 ; font-style: italic ; font-family: &amp;quot;courier new&amp;quot;&quot;&gt;（执行了最后一个拦截器的时候） &lt;/span&gt;&lt;span style=&quot;color: #629755 ; font-style: italic&quot;&gt;*/&lt;br&gt;&lt;/span&gt;&lt;span style=&quot;color: #cc7832&quot;&gt;if &lt;/span&gt;(&lt;span style=&quot;color: #cc7832&quot;&gt;this&lt;/span&gt;.&lt;span style=&quot;color: #9876aa&quot;&gt;currentInterceptorIndex &lt;/span&gt;== &lt;span style=&quot;color: #cc7832&quot;&gt;this&lt;/span&gt;.&lt;span style=&quot;color: #9876aa&quot;&gt;interceptorsAndDynamicMethodMatchers&lt;/span&gt;.size() - &lt;span style=&quot;color: #6897bb&quot;&gt;1&lt;/span&gt;) {&lt;br&gt;   &lt;span style=&quot;color: #cc7832&quot;&gt;return &lt;/span&gt;invokeJoinpoint()&lt;span style=&quot;color: #cc7832&quot;&gt;;&lt;br&gt;&lt;/span&gt;}&lt;br&gt;&lt;/pre&gt;" style="text;whiteSpace=wrap;html=1;fontSize=20;fontColor=#CC0000;" parent="bF5vYxYyOjAi4rwTEDQr-1" vertex="1">
          <mxGeometry x="945" y="2760" width="590" height="110" as="geometry" />
        </mxCell>
        <mxCell id="1n37X5XZOYJppBrc-e5R-37" style="edgeStyle=orthogonalEdgeStyle;curved=1;rounded=0;orthogonalLoop=1;jettySize=auto;html=1;exitX=0;exitY=0.5;exitDx=0;exitDy=0;entryX=0;entryY=0.5;entryDx=0;entryDy=0;fontSize=20;fontColor=#CC0000;startArrow=none;startFill=0;endArrow=classic;endFill=1;strokeColor=#000000;strokeWidth=2;" parent="bF5vYxYyOjAi4rwTEDQr-1" source="1n37X5XZOYJppBrc-e5R-39" target="1n37X5XZOYJppBrc-e5R-42" edge="1">
          <mxGeometry relative="1" as="geometry">
            <Array as="points">
              <mxPoint x="890" y="2674" />
              <mxPoint x="890" y="2835" />
            </Array>
          </mxGeometry>
        </mxCell>
        <mxCell id="1n37X5XZOYJppBrc-e5R-38" value="5" style="edgeLabel;html=1;align=center;verticalAlign=middle;resizable=0;points=[];fontSize=20;fontColor=#CC0000;" parent="1n37X5XZOYJppBrc-e5R-37" vertex="1" connectable="0">
          <mxGeometry x="-0.1127" y="-1" relative="1" as="geometry">
            <mxPoint as="offset" />
          </mxGeometry>
        </mxCell>
        <mxCell id="1n37X5XZOYJppBrc-e5R-39" value="" style="rounded=0;whiteSpace=wrap;html=1;fontSize=20;fontColor=#000000;strokeWidth=2;fillColor=#FF66B3;verticalAlign=middle;opacity=40;strokeColor=none;" parent="bF5vYxYyOjAi4rwTEDQr-1" vertex="1">
          <mxGeometry x="947" y="2664" width="400" height="20" as="geometry" />
        </mxCell>
        <mxCell id="1n37X5XZOYJppBrc-e5R-40" style="edgeStyle=orthogonalEdgeStyle;curved=1;rounded=0;orthogonalLoop=1;jettySize=auto;html=1;exitX=1;exitY=0.5;exitDx=0;exitDy=0;entryX=1;entryY=0.5;entryDx=0;entryDy=0;fontSize=20;fontColor=#CC0000;startArrow=none;startFill=0;endArrow=classic;endFill=1;strokeWidth=2;strokeColor=#CC6600;" parent="bF5vYxYyOjAi4rwTEDQr-1" source="1n37X5XZOYJppBrc-e5R-42" target="1n37X5XZOYJppBrc-e5R-47" edge="1">
          <mxGeometry relative="1" as="geometry">
            <Array as="points">
              <mxPoint x="1600" y="2835" />
              <mxPoint x="1600" y="2470" />
            </Array>
          </mxGeometry>
        </mxCell>
        <mxCell id="1n37X5XZOYJppBrc-e5R-41" value="6" style="edgeLabel;html=1;align=center;verticalAlign=middle;resizable=0;points=[];fontSize=20;fontColor=#007FFF;" parent="1n37X5XZOYJppBrc-e5R-40" vertex="1" connectable="0">
          <mxGeometry x="-0.2972" y="1" relative="1" as="geometry">
            <mxPoint as="offset" />
          </mxGeometry>
        </mxCell>
        <mxCell id="1n37X5XZOYJppBrc-e5R-42" value="" style="rounded=0;whiteSpace=wrap;html=1;fontSize=20;fontColor=#000000;strokeWidth=2;verticalAlign=middle;opacity=40;strokeColor=none;fillColor=#66B2FF;" parent="bF5vYxYyOjAi4rwTEDQr-1" vertex="1">
          <mxGeometry x="947" y="2825" width="583" height="20" as="geometry" />
        </mxCell>
        <mxCell id="1n37X5XZOYJppBrc-e5R-43" value="&lt;font color=&quot;#000000&quot; style=&quot;font-size: 15px&quot;&gt;自置&lt;/font&gt;" style="rounded=0;whiteSpace=wrap;html=1;fontSize=20;fontColor=#CC0000;strokeWidth=2;verticalAlign=middle;fillColor=#FFFFFF;" parent="bF5vYxYyOjAi4rwTEDQr-1" vertex="1">
          <mxGeometry x="1415" y="2770" width="45" height="20" as="geometry" />
        </mxCell>
        <mxCell id="1n37X5XZOYJppBrc-e5R-44" style="edgeStyle=orthogonalEdgeStyle;curved=1;rounded=0;orthogonalLoop=1;jettySize=auto;html=1;exitX=0.5;exitY=0;exitDx=0;exitDy=0;entryX=0.5;entryY=1;entryDx=0;entryDy=0;fontSize=20;fontColor=#007FFF;startArrow=none;startFill=0;endArrow=classic;endFill=1;strokeWidth=2;strokeColor=#66B2FF;" parent="bF5vYxYyOjAi4rwTEDQr-1" source="1n37X5XZOYJppBrc-e5R-47" target="1n37X5XZOYJppBrc-e5R-32" edge="1">
          <mxGeometry relative="1" as="geometry" />
        </mxCell>
        <mxCell id="1n37X5XZOYJppBrc-e5R-45" style="edgeStyle=orthogonalEdgeStyle;curved=1;rounded=0;orthogonalLoop=1;jettySize=auto;html=1;exitX=1;exitY=0.25;exitDx=0;exitDy=0;fontSize=20;fontColor=#007FFF;startArrow=none;startFill=0;endArrow=classic;endFill=1;strokeWidth=2;strokeColor=#CC6600;dashed=1;entryX=1;entryY=0.5;entryDx=0;entryDy=0;" parent="bF5vYxYyOjAi4rwTEDQr-1" source="1n37X5XZOYJppBrc-e5R-47" target="1n37X5XZOYJppBrc-e5R-50" edge="1">
          <mxGeometry relative="1" as="geometry">
            <mxPoint x="1610" y="2410" as="targetPoint" />
            <Array as="points">
              <mxPoint x="1720" y="2465" />
              <mxPoint x="1720" y="2040" />
            </Array>
          </mxGeometry>
        </mxCell>
        <mxCell id="1n37X5XZOYJppBrc-e5R-46" value="7&lt;br&gt;异常" style="edgeLabel;html=1;align=center;verticalAlign=middle;resizable=0;points=[];fontSize=20;fontColor=#007FFF;" parent="1n37X5XZOYJppBrc-e5R-45" vertex="1" connectable="0">
          <mxGeometry x="0.0252" y="2" relative="1" as="geometry">
            <mxPoint as="offset" />
          </mxGeometry>
        </mxCell>
        <mxCell id="1n37X5XZOYJppBrc-e5R-47" value="" style="rounded=0;whiteSpace=wrap;html=1;fontSize=20;fontColor=#000000;strokeWidth=2;verticalAlign=middle;opacity=40;strokeColor=none;fillColor=#66B2FF;" parent="bF5vYxYyOjAi4rwTEDQr-1" vertex="1">
          <mxGeometry x="952" y="2460" width="398" height="20" as="geometry" />
        </mxCell>
        <mxCell id="1n37X5XZOYJppBrc-e5R-48" style="edgeStyle=orthogonalEdgeStyle;curved=1;rounded=0;orthogonalLoop=1;jettySize=auto;html=1;exitX=1;exitY=0.25;exitDx=0;exitDy=0;entryX=1;entryY=0.5;entryDx=0;entryDy=0;dashed=1;fontSize=20;fontColor=#0000FF;startArrow=none;startFill=0;endArrow=classic;endFill=1;strokeColor=#0000FF;strokeWidth=2;" parent="bF5vYxYyOjAi4rwTEDQr-1" source="1n37X5XZOYJppBrc-e5R-50" target="1n37X5XZOYJppBrc-e5R-54" edge="1">
          <mxGeometry relative="1" as="geometry">
            <Array as="points">
              <mxPoint x="1430" y="2015" />
              <mxPoint x="1430" y="1790" />
            </Array>
          </mxGeometry>
        </mxCell>
        <mxCell id="1n37X5XZOYJppBrc-e5R-49" value="8" style="edgeLabel;html=1;align=center;verticalAlign=middle;resizable=0;points=[];fontSize=20;fontColor=#0000FF;" parent="1n37X5XZOYJppBrc-e5R-48" vertex="1" connectable="0">
          <mxGeometry x="-0.0882" y="3" relative="1" as="geometry">
            <mxPoint as="offset" />
          </mxGeometry>
        </mxCell>
        <mxCell id="1n37X5XZOYJppBrc-e5R-50" value="" style="rounded=0;whiteSpace=wrap;html=1;fontSize=20;fontColor=#000000;strokeWidth=2;verticalAlign=middle;opacity=40;strokeColor=none;fillColor=#66B2FF;" parent="bF5vYxYyOjAi4rwTEDQr-1" vertex="1">
          <mxGeometry x="952" y="1990" width="398" height="100" as="geometry" />
        </mxCell>
        <mxCell id="1n37X5XZOYJppBrc-e5R-51" style="edgeStyle=orthogonalEdgeStyle;curved=1;rounded=0;orthogonalLoop=1;jettySize=auto;html=1;exitX=1;exitY=0.5;exitDx=0;exitDy=0;entryX=1;entryY=0.5;entryDx=0;entryDy=0;dashed=1;fontSize=20;fontColor=#007FFF;startArrow=none;startFill=0;endArrow=classic;endFill=1;strokeWidth=2;strokeColor=#0000FF;" parent="bF5vYxYyOjAi4rwTEDQr-1" source="1n37X5XZOYJppBrc-e5R-53" target="1n37X5XZOYJppBrc-e5R-54" edge="1">
          <mxGeometry relative="1" as="geometry">
            <Array as="points">
              <mxPoint x="1650" y="2270" />
              <mxPoint x="1650" y="1790" />
            </Array>
          </mxGeometry>
        </mxCell>
        <mxCell id="1n37X5XZOYJppBrc-e5R-52" value="8" style="edgeLabel;html=1;align=center;verticalAlign=middle;resizable=0;points=[];fontSize=20;fontColor=#0000FF;" parent="1n37X5XZOYJppBrc-e5R-51" vertex="1" connectable="0">
          <mxGeometry x="-0.2031" y="4" relative="1" as="geometry">
            <mxPoint as="offset" />
          </mxGeometry>
        </mxCell>
        <mxCell id="1n37X5XZOYJppBrc-e5R-53" value="" style="rounded=0;whiteSpace=wrap;html=1;fontSize=20;fontColor=#000000;strokeWidth=2;verticalAlign=middle;opacity=40;strokeColor=none;fillColor=#66B2FF;" parent="bF5vYxYyOjAi4rwTEDQr-1" vertex="1">
          <mxGeometry x="952" y="2250" width="638" height="40" as="geometry" />
        </mxCell>
        <mxCell id="1n37X5XZOYJppBrc-e5R-54" value="" style="rounded=0;whiteSpace=wrap;html=1;fontSize=20;fontColor=#000000;strokeWidth=2;verticalAlign=middle;opacity=40;strokeColor=none;fillColor=#66B2FF;" parent="bF5vYxYyOjAi4rwTEDQr-1" vertex="1">
          <mxGeometry x="952" y="1780" width="398" height="20" as="geometry" />
        </mxCell>
        <mxCell id="1n37X5XZOYJppBrc-e5R-55" value="最终得到方法返回值" style="whiteSpace=wrap;html=1;rounded=0;fontSize=12;strokeWidth=2;fillColor=#FFFFFF;" parent="bF5vYxYyOjAi4rwTEDQr-1" vertex="1">
          <mxGeometry x="1570" y="1713" width="120" height="60" as="geometry" />
        </mxCell>
        <mxCell id="mxfyFnL8VsbHjbZOhPaL-0" value="&lt;font color=&quot;#000000&quot; style=&quot;font-size: 15px&quot;&gt;1内置&lt;/font&gt;" style="rounded=0;whiteSpace=wrap;html=1;fontSize=20;fontColor=#CC0000;strokeWidth=2;verticalAlign=middle;fillColor=#FFFFFF;" vertex="1" parent="bF5vYxYyOjAi4rwTEDQr-1">
          <mxGeometry x="2700" y="1800" width="60" height="20" as="geometry" />
        </mxCell>
        <mxCell id="mxfyFnL8VsbHjbZOhPaL-1" value="&lt;font color=&quot;#000000&quot; style=&quot;font-size: 15px&quot;&gt;1内置&lt;/font&gt;" style="rounded=0;whiteSpace=wrap;html=1;fontSize=20;fontColor=#CC0000;strokeWidth=2;verticalAlign=middle;fillColor=#FFFFFF;" vertex="1" parent="bF5vYxYyOjAi4rwTEDQr-1">
          <mxGeometry x="2700" y="2320" width="60" height="20" as="geometry" />
        </mxCell>
        <mxCell id="mxfyFnL8VsbHjbZOhPaL-2" value="&lt;font color=&quot;#000000&quot;&gt;&lt;span style=&quot;font-size: 15px&quot;&gt;2异常&lt;/span&gt;&lt;/font&gt;" style="rounded=0;whiteSpace=wrap;html=1;fontSize=20;fontColor=#CC0000;strokeWidth=2;verticalAlign=middle;fillColor=#FFFFFF;" vertex="1" parent="bF5vYxYyOjAi4rwTEDQr-1">
          <mxGeometry x="2700" y="2140" width="60" height="20" as="geometry" />
        </mxCell>
        <mxCell id="mxfyFnL8VsbHjbZOhPaL-15" style="edgeStyle=orthogonalEdgeStyle;rounded=0;orthogonalLoop=1;jettySize=auto;html=1;exitX=1;exitY=1;exitDx=0;exitDy=0;entryX=0;entryY=0.5;entryDx=0;entryDy=0;dashed=1;endArrow=none;endFill=0;" edge="1" parent="bF5vYxYyOjAi4rwTEDQr-1" source="mxfyFnL8VsbHjbZOhPaL-3" target="mxfyFnL8VsbHjbZOhPaL-14">
          <mxGeometry relative="1" as="geometry" />
        </mxCell>
        <mxCell id="mxfyFnL8VsbHjbZOhPaL-3" value="&lt;font color=&quot;#000000&quot;&gt;&lt;span style=&quot;font-size: 15px&quot;&gt;3返回&lt;/span&gt;&lt;/font&gt;" style="rounded=0;whiteSpace=wrap;html=1;fontSize=20;fontColor=#CC0000;strokeWidth=2;verticalAlign=middle;fillColor=#FFFFFF;" vertex="1" parent="bF5vYxYyOjAi4rwTEDQr-1">
          <mxGeometry x="2700" y="2080" width="60" height="20" as="geometry" />
        </mxCell>
        <mxCell id="mxfyFnL8VsbHjbZOhPaL-17" style="edgeStyle=orthogonalEdgeStyle;rounded=0;orthogonalLoop=1;jettySize=auto;html=1;exitX=1;exitY=0.5;exitDx=0;exitDy=0;entryX=0;entryY=0.5;entryDx=0;entryDy=0;dashed=1;endArrow=none;endFill=0;" edge="1" parent="bF5vYxYyOjAi4rwTEDQr-1" source="mxfyFnL8VsbHjbZOhPaL-4" target="mxfyFnL8VsbHjbZOhPaL-16">
          <mxGeometry relative="1" as="geometry" />
        </mxCell>
        <mxCell id="mxfyFnL8VsbHjbZOhPaL-4" value="" style="rounded=0;whiteSpace=wrap;html=1;fontSize=12;fontColor=#000000;strokeWidth=2;verticalAlign=middle;opacity=20;strokeColor=none;fillColor=#99FFFF;" vertex="1" parent="bF5vYxYyOjAi4rwTEDQr-1">
          <mxGeometry x="2020" y="1980" width="740" height="100" as="geometry" />
        </mxCell>
        <mxCell id="mxfyFnL8VsbHjbZOhPaL-5" value="&lt;font color=&quot;#000000&quot;&gt;&lt;span style=&quot;font-size: 15px&quot;&gt;4后置&lt;/span&gt;&lt;/font&gt;" style="rounded=0;whiteSpace=wrap;html=1;fontSize=20;fontColor=#CC0000;strokeWidth=2;verticalAlign=middle;fillColor=#FFFFFF;" vertex="1" parent="bF5vYxYyOjAi4rwTEDQr-1">
          <mxGeometry x="2700" y="1985" width="60" height="20" as="geometry" />
        </mxCell>
        <mxCell id="mxfyFnL8VsbHjbZOhPaL-6" value="" style="rounded=0;whiteSpace=wrap;html=1;fontSize=12;fontColor=#000000;strokeWidth=2;verticalAlign=middle;opacity=20;strokeColor=none;fillColor=#FF33FF;" vertex="1" parent="bF5vYxYyOjAi4rwTEDQr-1">
          <mxGeometry x="2020" y="1940" width="740" height="20" as="geometry" />
        </mxCell>
        <mxCell id="mxfyFnL8VsbHjbZOhPaL-7" value="" style="rounded=0;whiteSpace=wrap;html=1;fontSize=12;fontColor=#000000;strokeWidth=2;verticalAlign=middle;opacity=20;strokeColor=none;fillColor=#66FF66;" vertex="1" parent="bF5vYxYyOjAi4rwTEDQr-1">
          <mxGeometry x="2020" y="1960" width="740" height="20" as="geometry" />
        </mxCell>
        <mxCell id="mxfyFnL8VsbHjbZOhPaL-8" value="&lt;font color=&quot;#000000&quot;&gt;&lt;span style=&quot;font-size: 15px&quot;&gt;5前置&lt;/span&gt;&lt;/font&gt;" style="rounded=0;whiteSpace=wrap;html=1;fontSize=20;fontColor=#CC0000;strokeWidth=2;verticalAlign=middle;fillColor=#FFFFFF;" vertex="1" parent="bF5vYxYyOjAi4rwTEDQr-1">
          <mxGeometry x="2700" y="1940" width="60" height="20" as="geometry" />
        </mxCell>
        <mxCell id="mxfyFnL8VsbHjbZOhPaL-9" value="&lt;font color=&quot;#000000&quot;&gt;&lt;span style=&quot;font-size: 15px&quot;&gt;6自置&lt;/span&gt;&lt;/font&gt;" style="rounded=0;whiteSpace=wrap;html=1;fontSize=20;fontColor=#CC0000;strokeWidth=2;verticalAlign=middle;fillColor=#FFFFFF;" vertex="1" parent="bF5vYxYyOjAi4rwTEDQr-1">
          <mxGeometry x="2700" y="1960" width="60" height="20" as="geometry" />
        </mxCell>
        <mxCell id="mxfyFnL8VsbHjbZOhPaL-13" value="执行目标方法【add】的&amp;lt;异常通知&amp;gt;" style="rounded=0;whiteSpace=wrap;html=1;fillColor=#66FF66;" vertex="1" parent="bF5vYxYyOjAi4rwTEDQr-1">
          <mxGeometry x="2940" y="2250" width="220" height="50" as="geometry" />
        </mxCell>
        <mxCell id="mxfyFnL8VsbHjbZOhPaL-14" value="执行目标方法【add】的&amp;lt;返回通知&amp;gt;" style="rounded=0;whiteSpace=wrap;html=1;fillColor=#66FF66;" vertex="1" parent="bF5vYxYyOjAi4rwTEDQr-1">
          <mxGeometry x="2940" y="2100" width="220" height="50" as="geometry" />
        </mxCell>
        <mxCell id="mxfyFnL8VsbHjbZOhPaL-16" value="执行目标方法【add】的&amp;lt;后置通知&amp;gt;" style="rounded=0;whiteSpace=wrap;html=1;fillColor=#66FF66;" vertex="1" parent="bF5vYxYyOjAi4rwTEDQr-1">
          <mxGeometry x="2940" y="2005" width="220" height="50" as="geometry" />
        </mxCell>
      </root>
    </mxGraphModel>
  </diagram>
</mxfile>
